<?xml version="1.0" encoding="UTF-8"?>
<!DOCTYPE svg PUBLIC "-//W3C//DTD SVG 1.1//EN" "http://www.w3.org/Graphics/SVG/1.1/DTD/svg11.dtd">
<svg xmlns="http://www.w3.org/2000/svg" version="1.1" width="1050px" height="600px" style="shape-rendering:geometricPrecision; text-rendering:geometricPrecision; image-rendering:optimizeQuality; fill-rule:evenodd; clip-rule:evenodd" xmlns:xlink="http://www.w3.org/1999/xlink">
<g><path style="opacity:1" fill="#000001" d="M -0.5,-0.5 C 349.5,-0.5 699.5,-0.5 1049.5,-0.5C 1049.5,199.5 1049.5,399.5 1049.5,599.5C 699.5,599.5 349.5,599.5 -0.5,599.5C -0.5,399.5 -0.5,199.5 -0.5,-0.5 Z"/></g>
<g><path style="opacity:1" fill="#2f2f2f" d="M 162.5,99.5 C 149.656,99.1713 136.989,99.5046 124.5,100.5C 123.957,100.44 123.624,100.107 123.5,99.5C 136.661,98.1748 149.661,98.1748 162.5,99.5 Z"/></g>
<g><path style="opacity:1" fill="#fbfbfb" d="M 124.5,100.5 C 136.989,99.5046 149.656,99.1713 162.5,99.5C 182.652,139.137 202.819,178.804 223,218.5C 239.224,179.052 255.724,139.718 272.5,100.5C 288.49,99.3338 304.49,99.1671 320.5,100C 313.366,100.479 307.866,103.646 304,109.5C 303.5,131.831 303.333,154.164 303.5,176.5C 324.97,172.89 345.303,176.056 364.5,186C 369.588,189.083 374.088,192.917 378,197.5C 378.418,199.788 377.751,201.788 376,203.5C 366.333,216.167 356.667,228.833 347,241.5C 348.845,234.875 349.679,228.041 349.5,221C 349.543,197.907 338.21,184.407 315.5,180.5C 311.702,179.517 307.702,179.183 303.5,179.5C 303.169,202.006 303.503,224.34 304.5,246.5C 305.203,248.716 306.536,250.549 308.5,252C 312.392,253.64 316.392,254.973 320.5,256C 300.836,256.5 281.169,256.667 261.5,256.5C 264.59,280.856 275.59,300.69 294.5,316C 309.101,325.721 325.101,329.054 342.5,326C 354.665,324.085 364.998,318.752 373.5,310C 374.332,309.312 374.998,309.479 375.5,310.5C 365.305,325.164 351.305,333.997 333.5,337C 299.442,342.867 270.275,333.7 246,309.5C 226.589,284.297 222.255,256.63 233,226.5C 241.661,208.673 254.827,195.34 272.5,186.5C 273.663,161.67 273.83,136.67 273,111.5C 271.961,112.244 271.461,113.244 271.5,114.5C 251.44,162.287 231.106,209.954 210.5,257.5C 188.724,216.281 167.724,174.614 147.5,132.5C 147.44,131.957 147.107,131.624 146.5,131.5C 145.17,161.997 145.17,192.331 146.5,222.5C 146.435,231.572 148.268,240.239 152,248.5C 154.928,252.381 158.761,254.881 163.5,256C 150.5,256.667 137.5,256.667 124.5,256C 128.749,255.126 132.582,253.293 136,250.5C 138.435,245.764 140.101,240.764 141,235.5C 141.667,197.167 141.667,158.833 141,120.5C 137.085,112.428 131.585,105.762 124.5,100.5 Z"/></g>
<g><path style="opacity:1" fill="#747474" d="M 272.5,186.5 C 272.831,162.328 272.498,138.328 271.5,114.5C 271.461,113.244 271.961,112.244 273,111.5C 273.83,136.67 273.663,161.67 272.5,186.5 Z"/></g>
<g><path style="opacity:1" fill="#d0d0d0" d="M 522.5,119.5 C 523.833,119.5 525.167,119.5 526.5,119.5C 526.5,239.5 526.5,359.5 526.5,479.5C 525.167,479.5 523.833,479.5 522.5,479.5C 522.5,359.5 522.5,239.5 522.5,119.5 Z"/></g>
<g><path style="opacity:1" fill="#fefffe" d="M 688.5,125.5 C 690.5,125.5 692.5,125.5 694.5,125.5C 694.5,135.833 694.5,146.167 694.5,156.5C 692.5,156.5 690.5,156.5 688.5,156.5C 688.5,146.167 688.5,135.833 688.5,125.5 Z"/></g>
<g><path style="opacity:1" fill="#5b5c5b" d="M 793.5,125.5 C 793.82,128.898 793.487,132.232 792.5,135.5C 791.893,135.376 791.56,135.043 791.5,134.5C 792.167,131.5 792.833,128.5 793.5,125.5 Z"/></g>
<g><path style="opacity:1" fill="#f9f9f9" d="M 793.5,125.5 C 795.5,125.5 797.5,125.5 799.5,125.5C 799.5,135.833 799.5,146.167 799.5,156.5C 796.921,156.917 794.754,156.25 793,154.5C 789.405,156.456 785.572,156.956 781.5,156C 779,154.833 777.167,153 776,150.5C 773.357,137.311 778.523,131.978 791.5,134.5C 791.56,135.043 791.893,135.376 792.5,135.5C 793.487,132.232 793.82,128.898 793.5,125.5 Z"/></g>
<g><path style="opacity:1" fill="#f3f3f3" d="M 710.5,126.5 C 714.182,126.335 717.848,126.501 721.5,127C 728.226,128.872 728.893,131.706 723.5,135.5C 714.974,129.921 709.308,131.921 706.5,141.5C 706.78,146.242 709.113,149.408 713.5,151C 717.639,150.917 721.639,150.251 725.5,149C 728.064,151.276 727.73,153.276 724.5,155C 717.995,157.263 711.662,156.929 705.5,154C 696.264,142.811 697.931,133.644 710.5,126.5 Z"/></g>
<g><path style="opacity:1" fill="#f3f3f3" d="M 900.5,126.5 C 904.182,126.335 907.848,126.501 911.5,127C 918.226,128.872 918.893,131.706 913.5,135.5C 904.974,129.921 899.308,131.921 896.5,141.5C 896.78,146.242 899.113,149.408 903.5,151C 907.639,150.917 911.639,150.251 915.5,149C 918.064,151.276 917.73,153.276 914.5,155C 907.995,157.263 901.662,156.929 895.5,154C 886.264,142.811 887.931,133.644 900.5,126.5 Z"/></g>
<g><path style="opacity:1" fill="#f8f8f8" d="M 604.5,156.5 C 604.666,150.824 604.499,145.157 604,139.5C 603.283,140.044 602.783,140.711 602.5,141.5C 600.383,146.09 597.55,150.09 594,153.5C 592.739,153.241 591.739,152.574 591,151.5C 588.667,147.5 586.333,143.5 584,139.5C 583.501,145.157 583.334,150.824 583.5,156.5C 581.5,156.5 579.5,156.5 577.5,156.5C 577.5,146.5 577.5,136.5 577.5,126.5C 579.604,126.201 581.604,126.534 583.5,127.5C 586.802,133.299 590.302,138.966 594,144.5C 597.698,138.966 601.198,133.299 604.5,127.5C 606.396,126.534 608.396,126.201 610.5,126.5C 610.5,136.5 610.5,146.5 610.5,156.5C 608.5,156.5 606.5,156.5 604.5,156.5 Z"/></g>
<g><path style="opacity:1" fill="#b6b6b6" d="M 834.5,127.5 C 832.833,127.5 831.167,127.5 829.5,127.5C 829.5,137.167 829.5,146.833 829.5,156.5C 828.506,146.681 828.173,136.681 828.5,126.5C 830.735,126.205 832.735,126.539 834.5,127.5 Z"/></g>
<g><path style="opacity:1" fill="#fbfbfb" d="M 834.5,127.5 C 839.07,132.313 843.403,137.313 847.5,142.5C 847.783,143.289 848.283,143.956 849,144.5C 849.499,138.843 849.666,133.176 849.5,127.5C 851.5,127.5 853.5,127.5 855.5,127.5C 855.5,137.167 855.5,146.833 855.5,156.5C 853.396,156.799 851.396,156.466 849.5,155.5C 845.188,150.02 840.688,144.687 836,139.5C 835.501,145.157 835.334,150.824 835.5,156.5C 833.5,156.5 831.5,156.5 829.5,156.5C 829.5,146.833 829.5,137.167 829.5,127.5C 831.167,127.5 832.833,127.5 834.5,127.5 Z"/></g>
<g><path style="opacity:1" fill="#6a6a6a" d="M 855.5,156.5 C 855.5,146.833 855.5,137.167 855.5,127.5C 853.5,127.5 851.5,127.5 849.5,127.5C 849.666,133.176 849.499,138.843 849,144.5C 848.283,143.956 847.783,143.289 847.5,142.5C 848.488,137.36 848.821,132.026 848.5,126.5C 851.167,126.5 853.833,126.5 856.5,126.5C 856.827,136.681 856.494,146.681 855.5,156.5 Z"/></g>
<g><path style="opacity:1" fill="#f0f0f0" d="M 859.5,126.5 C 861.924,126.192 864.257,126.526 866.5,127.5C 868.802,131.633 871.302,135.633 874,139.5C 876.75,135.668 879.25,131.668 881.5,127.5C 883.833,126.167 886.167,126.167 888.5,127.5C 885,133.167 881.5,138.833 878,144.5C 877.501,148.486 877.334,152.486 877.5,156.5C 875.167,156.5 872.833,156.5 870.5,156.5C 870.665,152.818 870.499,149.152 870,145.5C 865.968,139.434 862.468,133.101 859.5,126.5 Z"/></g>
<g><path style="opacity:1" fill="#f3f3f3" d="M 644.5,128.5 C 646.833,128.5 649.167,128.5 651.5,128.5C 651.5,130.5 651.5,132.5 651.5,134.5C 653.167,134.5 654.833,134.5 656.5,134.5C 656.5,136.167 656.5,137.833 656.5,139.5C 654.833,139.5 653.167,139.5 651.5,139.5C 651.335,143.182 651.501,146.848 652,150.5C 653.825,151.103 655.659,151.77 657.5,152.5C 658.711,153.72 658.711,154.887 657.5,156C 654.5,156.667 651.5,156.667 648.5,156C 646.951,154.786 645.785,153.286 645,151.5C 644.501,147.514 644.334,143.514 644.5,139.5C 643.5,139.5 642.5,139.5 641.5,139.5C 641.5,137.833 641.5,136.167 641.5,134.5C 642.5,134.5 643.5,134.5 644.5,134.5C 644.5,132.5 644.5,130.5 644.5,128.5 Z"/></g>
<g><path style="opacity:1" fill="#ababab" d="M 147.5,132.5 C 146.502,162.329 146.169,192.329 146.5,222.5C 145.17,192.331 145.17,161.997 146.5,131.5C 147.107,131.624 147.44,131.957 147.5,132.5 Z"/></g>
<g><path style="opacity:1" fill="#f0f0f0" d="M 622.5,133.5 C 633.605,131.857 639.272,136.524 639.5,147.5C 633.794,147.171 628.128,147.505 622.5,148.5C 625.983,152.049 629.817,152.382 634,149.5C 635.167,150.667 636.333,151.833 637.5,153C 636.449,154.385 635.116,155.385 633.5,156C 619.303,158.14 613.803,152.307 617,138.5C 618.812,136.7 620.645,135.033 622.5,133.5 Z"/></g>
<g><path style="opacity:1" fill="#f2f2f2" d="M 665.5,133.5 C 669.182,133.335 672.848,133.501 676.5,134C 678.286,134.785 679.786,135.951 681,137.5C 682.416,143.715 682.916,150.048 682.5,156.5C 679.921,156.917 677.754,156.25 676,154.5C 670.401,157.694 665.401,157.028 661,152.5C 659.824,148.74 660.99,145.907 664.5,144C 668.152,143.501 671.818,143.335 675.5,143.5C 675.703,141.61 675.037,140.11 673.5,139C 670.289,138.202 667.289,138.702 664.5,140.5C 661.686,137.633 662.019,135.3 665.5,133.5 Z"/></g>
<g><path style="opacity:1" fill="#eeeeee" d="M 735.5,133.5 C 739.182,133.335 742.848,133.501 746.5,134C 749.381,135.251 751.214,137.417 752,140.5C 752.499,145.823 752.666,151.156 752.5,156.5C 747.923,155.859 743.423,155.859 739,156.5C 730.993,155.986 728.826,152.153 732.5,145C 736.7,143.633 741.033,143.133 745.5,143.5C 745.863,141.089 744.863,139.589 742.5,139C 739.242,138.384 736.242,138.717 733.5,140C 732.707,138.915 732.04,137.748 731.5,136.5C 732.901,135.479 734.235,134.479 735.5,133.5 Z"/></g>
<g><path style="opacity:1" fill="#f9f9f9" d="M 758.5,133.5 C 760.5,133.5 762.5,133.5 764.5,133.5C 764.443,137.133 765.443,137.3 767.5,134C 769.134,133.506 770.801,133.34 772.5,133.5C 772.5,135.5 772.5,137.5 772.5,139.5C 768.818,138.725 766.318,140.059 765,143.5C 764.501,147.821 764.334,152.154 764.5,156.5C 762.5,156.5 760.5,156.5 758.5,156.5C 758.5,148.833 758.5,141.167 758.5,133.5 Z"/></g>
<g><path style="opacity:1" fill="#f0f0f0" d="M 809.5,133.5 C 813.182,133.335 816.848,133.501 820.5,134C 824.167,135 824.5,136.667 821.5,139C 819.166,139.339 816.832,139.172 814.5,138.5C 811.292,138.188 810.292,139.355 811.5,142C 815.305,142.534 818.971,143.534 822.5,145C 825.693,150.284 824.36,153.951 818.5,156C 814.5,156.667 810.5,156.667 806.5,156C 805.328,155.581 804.328,154.915 803.5,154C 804.46,152.581 805.293,151.081 806,149.5C 809.583,151.29 813.416,151.957 817.5,151.5C 817.719,150.325 817.386,149.325 816.5,148.5C 813.891,147.77 811.224,147.27 808.5,147C 804.708,144.947 803.542,141.781 805,137.5C 806.397,135.93 807.897,134.596 809.5,133.5 Z"/></g>
<g><path style="opacity:1" fill="#1d1d1d" d="M 624.5,138.5 C 629.175,137.339 631.841,139.006 632.5,143.5C 629.167,143.5 625.833,143.5 622.5,143.5C 622.392,141.486 623.058,139.82 624.5,138.5 Z"/></g>
<g><path style="opacity:1" fill="#141414" d="M 785.5,138.5 C 791.133,138.961 793.633,141.961 793,147.5C 791.179,150.991 788.346,152.157 784.5,151C 780.334,146.368 780.667,142.202 785.5,138.5 Z"/></g>
<g><path style="opacity:1" fill="#4e4e4e" d="M 604.5,156.5 C 603.833,151.5 603.167,146.5 602.5,141.5C 602.783,140.711 603.283,140.044 604,139.5C 604.499,145.157 604.666,150.824 604.5,156.5 Z"/></g>
<g><path style="opacity:1" fill="#111111" d="M 667.5,147.5 C 670.167,147.5 672.833,147.5 675.5,147.5C 674.677,151.83 672.177,153.163 668,151.5C 667.51,150.207 667.343,148.873 667.5,147.5 Z"/></g>
<g><path style="opacity:1" fill="#101010" d="M 737.5,147.5 C 740.167,147.5 742.833,147.5 745.5,147.5C 744.677,151.83 742.177,153.163 738,151.5C 737.51,150.207 737.343,148.873 737.5,147.5 Z"/></g>
<g><path style="opacity:1" fill="#fefffe" d="M 771.5,173.5 C 772.825,177.276 773.491,181.443 773.5,186C 773.167,190.167 772.833,194.333 772.5,198.5C 771.502,190.193 771.169,181.86 771.5,173.5 Z"/></g>
<g><path style="opacity:1" fill="#ebebeb" d="M 790.5,185.5 C 800.133,181.618 803.967,184.951 802,195.5C 801.167,196.333 800.333,197.167 799.5,198C 795.728,198.085 792.061,198.252 788.5,198.5C 788.334,190.16 788.5,181.827 789,173.5C 789.176,177.688 789.676,181.688 790.5,185.5 Z"/></g>
<g><path style="opacity:1" fill="#a2a2a2" d="M 790.5,185.5 C 789.676,181.688 789.176,177.688 789,173.5C 788.5,181.827 788.334,190.16 788.5,198.5C 787.507,190.016 787.174,181.349 787.5,172.5C 788.5,172.5 789.5,172.5 790.5,172.5C 790.5,176.833 790.5,181.167 790.5,185.5 Z"/></g>
<g><path style="opacity:1" fill="#5d5d5d" d="M 977.5,173.5 C 977.824,177.555 977.491,181.555 976.5,185.5C 975.893,185.376 975.56,185.043 975.5,184.5C 976.167,180.833 976.833,177.167 977.5,173.5 Z"/></g>
<g><path style="opacity:1" fill="#f0f0f0" d="M 633.5,178.5 C 635.028,179.802 636.028,181.469 636.5,183.5C 638.179,183.285 639.179,183.952 639.5,185.5C 638.167,185.5 636.833,185.5 635.5,185.5C 635.5,189.833 635.5,194.167 635.5,198.5C 633.57,194.627 632.903,190.294 633.5,185.5C 629.5,184.833 629.5,184.167 633.5,183.5C 633.5,181.833 633.5,180.167 633.5,178.5 Z"/></g>
<g><path style="opacity:1" fill="#848484" d="M 633.5,178.5 C 634.209,177.596 635.209,177.263 636.5,177.5C 636.5,179.5 636.5,181.5 636.5,183.5C 636.028,181.469 635.028,179.802 633.5,178.5 Z"/></g>
<g><path style="opacity:1" fill="#f0f0f0" d="M 742.5,178.5 C 744.028,179.802 745.028,181.469 745.5,183.5C 747.179,183.285 748.179,183.952 748.5,185.5C 747.167,185.5 745.833,185.5 744.5,185.5C 744.5,189.833 744.5,194.167 744.5,198.5C 742.57,194.627 741.903,190.294 742.5,185.5C 738.5,184.833 738.5,184.167 742.5,183.5C 742.5,181.833 742.5,180.167 742.5,178.5 Z"/></g>
<g><path style="opacity:1" fill="#848484" d="M 742.5,178.5 C 743.209,177.596 744.209,177.263 745.5,177.5C 745.5,179.5 745.5,181.5 745.5,183.5C 745.028,181.469 744.028,179.802 742.5,178.5 Z"/></g>
<g><path style="opacity:1" fill="#fefffe" d="M 838.5,178.5 C 840.337,178.639 840.67,179.306 839.5,180.5C 838.702,180.043 838.369,179.376 838.5,178.5 Z"/></g>
<g><path style="opacity:1" fill="#575757" d="M 315.5,180.5 C 311.833,180.5 308.167,180.5 304.5,180.5C 304.5,202.5 304.5,224.5 304.5,246.5C 303.503,224.34 303.169,202.006 303.5,179.5C 307.702,179.183 311.702,179.517 315.5,180.5 Z"/></g>
<g><path style="opacity:1" fill="#e5e5e5" d="M 646.5,183.5 C 654.656,182.821 658.156,186.488 657,194.5C 652.239,199.812 647.572,199.812 643,194.5C 641.663,189.872 642.83,186.205 646.5,183.5 Z"/></g>
<g><path style="opacity:1" fill="#f3f3f3" d="M 661.5,183.5 C 662.75,183.577 663.583,184.244 664,185.5C 667,182.833 670,182.833 673,185.5C 680.097,181.578 683.264,183.745 682.5,192C 682.167,194.167 681.833,196.333 681.5,198.5C 680.675,194.878 680.175,191.211 680,187.5C 678.084,184.967 676.084,184.967 674,187.5C 673,202.167 672,202.167 671,187.5C 667.841,184.659 665.508,185.326 664,189.5C 663.821,192.553 663.321,195.553 662.5,198.5C 661.506,193.544 661.173,188.544 661.5,183.5 Z"/></g>
<g><path style="opacity:1" fill="#f3f3f3" d="M 696.5,183.5 C 697.75,183.577 698.583,184.244 699,185.5C 702,182.833 705,182.833 708,185.5C 715.097,181.578 718.264,183.745 717.5,192C 717.167,194.167 716.833,196.333 716.5,198.5C 715.675,194.878 715.175,191.211 715,187.5C 713.084,184.967 711.084,184.967 709,187.5C 708,202.167 707,202.167 706,187.5C 702.841,184.659 700.508,185.326 699,189.5C 698.821,192.553 698.321,195.553 697.5,198.5C 696.506,193.544 696.173,188.544 696.5,183.5 Z"/></g>
<g><path style="opacity:1" fill="#e7e7e7" d="M 736.5,191.5 C 732.116,191.174 727.783,191.508 723.5,192.5C 723.624,193.107 723.957,193.44 724.5,193.5C 725.317,195.478 726.817,196.478 729,196.5C 731.076,195.388 733.243,194.888 735.5,195C 730.848,199.766 726.348,199.599 722,194.5C 721.239,184.932 725.406,181.765 734.5,185C 736.016,186.897 736.683,189.064 736.5,191.5 Z"/></g>
<g><path style="opacity:1" fill="#e1e1e1" d="M 755.5,183.5 C 759.263,184.087 762.929,184.087 766.5,183.5C 766.5,188.5 766.5,193.5 766.5,198.5C 762.592,198.162 758.592,197.995 754.5,198C 751.606,195.091 750.773,191.591 752,187.5C 752.69,185.65 753.856,184.316 755.5,183.5 Z"/></g>
<g><path style="opacity:1" fill="#eeeeee" d="M 877.5,191.5 C 873.116,191.174 868.783,191.508 864.5,192.5C 864.624,193.107 864.957,193.44 865.5,193.5C 866.249,195.246 867.583,196.246 869.5,196.5C 871.761,195.352 874.095,194.852 876.5,195C 872.35,199.473 868.017,199.639 863.5,195.5C 860.696,186.262 864.029,182.429 873.5,184C 876.397,185.715 877.731,188.215 877.5,191.5 Z"/></g>
<g><path style="opacity:1" fill="#dbdbdb" d="M 920.5,183.5 C 925.315,182.52 928.982,184.02 931.5,188C 928.383,186.822 925.05,186.489 921.5,187C 918.294,191.457 919.294,194.624 924.5,196.5C 926.447,195.723 928.28,194.723 930,193.5C 931.726,194.648 931.559,195.815 929.5,197C 920.961,200.451 916.794,197.618 917,188.5C 917.997,186.677 919.164,185.01 920.5,183.5 Z"/></g>
<g><path style="opacity:1" fill="#eeeeee" d="M 938.5,183.5 C 941.602,183.154 944.435,183.821 947,185.5C 947.308,184.692 947.808,184.025 948.5,183.5C 949.833,188.5 949.833,193.5 948.5,198.5C 947.676,196.252 946.676,196.086 945.5,198C 937.385,199.218 933.885,195.718 935,187.5C 936.376,186.295 937.542,184.962 938.5,183.5 Z"/></g>
<g><path style="opacity:1" fill="#f0f0f0" d="M 977.5,173.5 C 978.825,177.276 979.491,181.443 979.5,186C 979.167,190.167 978.833,194.333 978.5,198.5C 977.833,197.833 977.167,197.167 976.5,196.5C 967.456,200.383 963.623,197.383 965,187.5C 967.645,183.585 971.145,182.585 975.5,184.5C 975.56,185.043 975.893,185.376 976.5,185.5C 977.491,181.555 977.824,177.555 977.5,173.5 Z"/></g>
<g><path style="opacity:1" fill="#f7f7f7" d="M 601.5,183.5 C 603.268,187.044 604.102,191.044 604,195.5C 606.881,197.028 609.214,196.362 611,193.5C 611.176,190.118 611.676,186.785 612.5,183.5C 613.833,188.5 613.833,193.5 612.5,198.5C 611.808,197.975 611.308,197.308 611,196.5C 608,199.167 605,199.167 602,196.5C 601.501,192.179 601.334,187.846 601.5,183.5 Z"/></g>
<g><path style="opacity:1" fill="#e3e3e3" d="M 619.5,183.5 C 622.365,183.055 624.865,183.722 627,185.5C 627.688,186.332 627.521,186.998 626.5,187.5C 624.038,184.947 621.705,184.947 619.5,187.5C 621.554,189.194 623.888,190.361 626.5,191C 629.167,193.333 629.167,195.667 626.5,198C 623.571,198.777 620.737,198.61 618,197.5C 617.251,196.365 617.417,195.365 618.5,194.5C 620.51,196.171 622.843,196.838 625.5,196.5C 625.67,195.178 625.337,194.011 624.5,193C 617.892,192.116 616.226,188.949 619.5,183.5 Z"/></g>
<g><path style="opacity:1" fill="#dfdfdf" d="M 807.5,183.5 C 809.26,186.701 810.094,190.367 810,194.5C 813.089,197.309 815.422,196.643 817,192.5C 817.498,189.518 817.665,186.518 817.5,183.5C 818.5,183.5 819.5,183.5 820.5,183.5C 820.5,188.5 820.5,193.5 820.5,198.5C 818.876,198.64 817.71,197.973 817,196.5C 814,199.167 811,199.167 808,196.5C 807.501,192.179 807.334,187.846 807.5,183.5 Z"/></g>
<g><path style="opacity:1" fill="#fdfdfd" d="M 838.5,183.5 C 839.809,185.571 840.475,188.071 840.5,191C 840.167,193.5 839.833,196 839.5,198.5C 838.506,193.544 838.173,188.544 838.5,183.5 Z"/></g>
<g><path style="opacity:1" fill="#d3d3d3" d="M 845.5,183.5 C 847.124,183.36 848.29,184.027 849,185.5C 851.795,182.887 854.629,182.887 857.5,185.5C 858.439,189.765 858.772,194.098 858.5,198.5C 857.5,198.5 856.5,198.5 855.5,198.5C 855.666,194.486 855.499,190.486 855,186.5C 852.46,185.124 850.46,185.79 849,188.5C 848.502,191.817 848.335,195.15 848.5,198.5C 847.5,198.5 846.5,198.5 845.5,198.5C 845.5,193.5 845.5,188.5 845.5,183.5 Z"/></g>
<g><path style="opacity:1" fill="#dadada" d="M 896.5,183.5 C 899.908,182.828 902.575,183.828 904.5,186.5C 904,186.833 903.5,187.167 903,187.5C 901.079,185.997 898.912,185.331 896.5,185.5C 896.351,186.552 896.517,187.552 897,188.5C 899.071,189.525 901.238,190.358 903.5,191C 906.167,193.333 906.167,195.667 903.5,198C 900.007,199.004 896.841,198.504 894,196.5C 893.409,195.517 893.743,194.85 895,194.5C 897.256,196.085 899.756,196.752 902.5,196.5C 902.67,195.178 902.337,194.011 901.5,193C 898.692,192.402 896.192,191.235 894,189.5C 893.034,186.66 893.867,184.66 896.5,183.5 Z"/></g>
<g><path style="opacity:1" fill="#d8d8d8" d="M 954.5,183.5 C 957.062,184.371 959.728,184.371 962.5,183.5C 962.5,184.5 962.5,185.5 962.5,186.5C 960.856,186.286 959.356,186.62 958,187.5C 957.501,191.152 957.335,194.818 957.5,198.5C 956.5,198.5 955.5,198.5 954.5,198.5C 954.5,193.5 954.5,188.5 954.5,183.5 Z"/></g>
<g><path style="opacity:1" fill="#e7e7e7" d="M 825.5,183.5 C 829.325,182.789 832.325,183.955 834.5,187C 831.967,186.389 829.3,185.889 826.5,185.5C 826.33,186.822 826.663,187.989 827.5,189C 829.459,189.931 831.459,190.764 833.5,191.5C 834.847,197.968 832.18,200.134 825.5,198C 823.74,197.035 823.406,195.868 824.5,194.5C 827.288,197.075 829.955,197.075 832.5,194.5C 829.629,193.051 826.795,191.385 824,189.5C 823.252,187.16 823.752,185.16 825.5,183.5 Z"/></g>
<g><path style="opacity:1" fill="#e7e7e7" d="M 882.5,183.5 C 886.325,182.789 889.325,183.955 891.5,187C 888.967,186.389 886.3,185.889 883.5,185.5C 883.33,186.822 883.663,187.989 884.5,189C 886.459,189.931 888.459,190.764 890.5,191.5C 891.847,197.968 889.18,200.134 882.5,198C 880.74,197.035 880.406,195.868 881.5,194.5C 884.288,197.075 886.955,197.075 889.5,194.5C 886.629,193.051 883.795,191.385 881,189.5C 880.252,187.16 880.752,185.16 882.5,183.5 Z"/></g>
<g><path style="opacity:1" fill="#e7e7e7" d="M 985.5,183.5 C 989.325,182.789 992.325,183.955 994.5,187C 991.967,186.389 989.3,185.889 986.5,185.5C 986.33,186.822 986.663,187.989 987.5,189C 989.459,189.931 991.459,190.764 993.5,191.5C 994.847,197.968 992.18,200.134 985.5,198C 983.74,197.035 983.406,195.868 984.5,194.5C 987.288,197.075 989.955,197.075 992.5,194.5C 989.629,193.051 986.795,191.385 984,189.5C 983.252,187.16 983.752,185.16 985.5,183.5 Z"/></g>
<g><path style="opacity:1" fill="#7b7b7b" d="M 639.5,185.5 C 638.791,186.404 637.791,186.737 636.5,186.5C 636.817,190.702 636.483,194.702 635.5,198.5C 635.5,194.167 635.5,189.833 635.5,185.5C 636.833,185.5 638.167,185.5 639.5,185.5 Z"/></g>
<g><path style="opacity:1" fill="#101010" d="M 647.5,185.5 C 654.263,185.574 656.263,188.741 653.5,195C 647.24,197.412 644.407,195.245 645,188.5C 646.045,187.627 646.878,186.627 647.5,185.5 Z"/></g>
<g><path style="opacity:1" fill="#101011" d="M 726.5,185.5 C 729.463,185.151 731.796,186.151 733.5,188.5C 730.5,189.833 727.5,189.833 724.5,188.5C 725.193,187.482 725.859,186.482 726.5,185.5 Z"/></g>
<g><path style="opacity:1" fill="#7b7b7b" d="M 748.5,185.5 C 747.791,186.404 746.791,186.737 745.5,186.5C 745.817,190.702 745.483,194.702 744.5,198.5C 744.5,194.167 744.5,189.833 744.5,185.5C 745.833,185.5 747.167,185.5 748.5,185.5 Z"/></g>
<g><path style="opacity:1" fill="#0e0e0e" d="M 756.5,185.5 C 761.813,185.644 763.979,188.31 763,193.5C 760.048,197.482 757.048,197.482 754,193.5C 753.018,190.225 753.851,187.559 756.5,185.5 Z"/></g>
<g><path style="opacity:1" fill="#0d0d0e" d="M 793.5,185.5 C 800.968,186.674 802.301,190.174 797.5,196C 791.839,196.667 789.672,194.167 791,188.5C 792.045,187.627 792.878,186.627 793.5,185.5 Z"/></g>
<g><path style="opacity:1" fill="#111111" d="M 874.5,189.5 C 871.287,189.81 868.287,189.477 865.5,188.5C 867.527,185.164 870.193,184.664 873.5,187C 874.252,187.671 874.586,188.504 874.5,189.5 Z"/></g>
<g><path style="opacity:1" fill="#171717" d="M 939.5,185.5 C 947.818,185.987 949.485,189.487 944.5,196C 937.999,196.812 935.832,193.979 938,187.5C 938.717,186.956 939.217,186.289 939.5,185.5 Z"/></g>
<g><path style="opacity:1" fill="#151515" d="M 969.5,185.5 C 976.263,185.547 978.263,188.714 975.5,195C 969.24,197.412 966.407,195.245 967,188.5C 968.045,187.627 968.878,186.627 969.5,185.5 Z"/></g>
<g><path style="opacity:1" fill="#8e8e8e" d="M 865.5,188.5 C 868.287,189.477 871.287,189.81 874.5,189.5C 871.313,190.806 867.98,190.806 864.5,189.5C 864.624,188.893 864.957,188.56 865.5,188.5 Z"/></g>
<g><path style="opacity:1" fill="#7c7c7c" d="M 736.5,191.5 C 732.5,192.167 728.5,192.833 724.5,193.5C 723.957,193.44 723.624,193.107 723.5,192.5C 727.783,191.508 732.116,191.174 736.5,191.5 Z"/></g>
<g><path style="opacity:1" fill="#767676" d="M 877.5,191.5 C 873.5,192.167 869.5,192.833 865.5,193.5C 864.957,193.44 864.624,193.107 864.5,192.5C 868.783,191.508 873.116,191.174 877.5,191.5 Z"/></g>
<g><path style="opacity:1" fill="#e7e7e7" d="M 582.5,175.5 C 589,174.421 594,176.587 597.5,182C 594.906,182.449 592.906,181.449 591.5,179C 582.311,176.353 577.811,179.853 578,189.5C 582.318,197.747 587.818,198.58 594.5,192C 595.5,191.333 596.5,191.333 597.5,192C 593.999,197.579 588.999,199.579 582.5,198C 576.092,194.677 573.925,189.511 576,182.5C 577.694,179.642 579.861,177.309 582.5,175.5 Z"/></g>
<g><path style="opacity:1" fill="#757575" d="M 272.5,246.5 C 272.83,230.658 272.496,214.991 271.5,199.5C 271.783,198.711 272.283,198.044 273,197.5C 273.828,214.005 273.662,230.339 272.5,246.5 Z"/></g>
<g><path style="opacity:1" fill="#080809" d="M 271.5,199.5 C 272.496,214.991 272.83,230.658 272.5,246.5C 270.604,251.2 267.104,253.867 262,254.5C 258.342,234.926 261.509,216.593 271.5,199.5 Z"/></g>
<g><path style="opacity:1" fill="#d0d0d0" d="M 579.5,342.5 C 580.376,342.369 581.043,342.702 581.5,343.5C 577.556,353.64 577.556,363.806 581.5,374C 581.167,374.5 580.833,375 580.5,375.5C 574.24,364.698 573.906,353.698 579.5,342.5 Z"/></g>
<g><path style="opacity:1" fill="#e1e1e1" d="M 587.5,344.5 C 594.01,343.244 598.01,345.744 599.5,352C 598.186,355.991 596.019,359.491 593,362.5C 591.142,365.412 588.642,366.912 585.5,367C 587.874,364.961 589.874,362.628 591.5,360C 582.622,356.778 581.289,351.612 587.5,344.5 Z"/></g>
<g><path style="opacity:1" fill="#f0f0f0" d="M 608.5,363.5 C 607.711,363.783 607.044,364.283 606.5,365C 610.311,364.917 613.645,365.75 616.5,367.5C 611.489,367.666 606.489,367.499 601.5,367C 606.806,362.538 611.139,357.371 614.5,351.5C 610.1,344.587 606.1,344.92 602.5,352.5C 601.11,349.105 602.11,346.605 605.5,345C 614.333,343.167 617.833,346.667 616,355.5C 613.295,358.036 610.795,360.703 608.5,363.5 Z"/></g>
<g><path style="opacity:1" fill="#e5e5e5" d="M 623.5,344.5 C 635.012,344.865 637.512,349.865 631,359.5C 628.312,362.272 625.646,364.938 623,367.5C 622.5,367.167 622,366.833 621.5,366.5C 623.167,364.5 624.833,362.5 626.5,360.5C 618.432,356.334 617.432,351 623.5,344.5 Z"/></g>
<g><path style="opacity:1" fill="#e7e7e7" d="M 672.5,344.5 C 676.226,344.177 679.893,344.511 683.5,345.5C 680.5,346.167 677.5,346.833 674.5,347.5C 673.691,349.071 673.357,350.738 673.5,352.5C 682.61,352.772 685.443,357.105 682,365.5C 678.284,367.934 674.451,368.101 670.5,366C 669.269,364.817 669.269,363.651 670.5,362.5C 675.198,366.96 678.864,366.293 681.5,360.5C 681.24,358.813 680.573,357.313 679.5,356C 676.518,355.502 673.518,355.335 670.5,355.5C 670.691,351.738 671.358,348.071 672.5,344.5 Z"/></g>
<g><path style="opacity:1" fill="#e7e7e7" d="M 767.5,344.5 C 771.226,344.177 774.893,344.511 778.5,345.5C 775.5,346.167 772.5,346.833 769.5,347.5C 768.691,349.071 768.357,350.738 768.5,352.5C 777.61,352.772 780.443,357.105 777,365.5C 773.284,367.934 769.451,368.101 765.5,366C 764.269,364.817 764.269,363.651 765.5,362.5C 770.198,366.96 773.864,366.293 776.5,360.5C 776.24,358.813 775.573,357.313 774.5,356C 771.518,355.502 768.518,355.335 765.5,355.5C 765.691,351.738 766.358,348.071 767.5,344.5 Z"/></g>
<g><path style="opacity:1" fill="#111112" d="M 624.5,346.5 C 632.41,346.845 634.077,350.012 629.5,356C 624.932,357.65 622.266,356.15 621.5,351.5C 622.092,349.577 623.092,347.911 624.5,346.5 Z"/></g>
<g><path style="opacity:1" fill="#dfdfdf" d="M 636.5,341.5 C 638.888,342.219 640.388,343.885 641,346.5C 643,354.167 643,361.833 641,369.5C 640.588,371.997 639.422,373.997 637.5,375.5C 637.167,375.167 636.833,374.833 636.5,374.5C 641.781,363.477 641.781,352.477 636.5,341.5 Z"/></g>
<g><path style="opacity:1" fill="#dfdfdf" d="M 662.5,344.5 C 663.552,344.351 664.552,344.517 665.5,345C 663.5,347.333 661.5,349.667 659.5,352C 668.308,355.045 669.641,360.045 663.5,367C 655.381,368.875 651.548,365.708 652,357.5C 655.713,353.292 659.213,348.959 662.5,344.5 Z"/></g>
<g><path style="opacity:1" fill="#565656" d="M 748.5,346.5 C 750.924,346.192 753.257,346.526 755.5,347.5C 755.376,348.107 755.043,348.44 754.5,348.5C 752.5,347.833 750.5,347.167 748.5,346.5 Z"/></g>
<g><path style="opacity:1" fill="#0c0c0d" d="M 588.5,346.5 C 595.803,346.602 597.803,349.769 594.5,356C 586.424,356.805 584.424,353.638 588.5,346.5 Z"/></g>
<g><path style="opacity:1" fill="#e4e4e4" d="M 754.5,348.5 C 755.043,348.44 755.376,348.107 755.5,347.5C 753.257,346.526 750.924,346.192 748.5,346.5C 750.048,345.206 752.048,344.539 754.5,344.5C 756.5,344.667 758.5,344.833 760.5,345C 758.874,347.628 756.874,349.961 754.5,352C 763.452,355.016 764.786,360.016 758.5,367C 753.695,368.474 750.028,367.141 747.5,363C 748.5,362.333 749.5,362.333 750.5,363C 755.105,366.679 758.438,365.679 760.5,360C 759.899,358.395 758.899,357.062 757.5,356C 754.805,355.746 752.305,355.579 750,355.5C 749.333,354.833 749.333,354.167 750,353.5C 751.707,351.963 753.207,350.296 754.5,348.5 Z"/></g>
<g><path style="opacity:1" fill="#e8e8e8" d="M 700.5,358.5 C 700.5,359.833 700.5,361.167 700.5,362.5C 699.351,366.003 696.851,367.669 693,367.5C 689.958,367.63 687.791,366.297 686.5,363.5C 686.833,363.167 687.167,362.833 687.5,362.5C 692.6,367.14 696.267,366.307 698.5,360C 698.561,358.289 697.894,356.956 696.5,356C 694.101,355.289 691.768,355.456 689.5,356.5C 688.692,356.192 688.025,355.692 687.5,355C 690.069,352.521 692.402,349.854 694.5,347C 692.1,346.814 689.766,346.314 687.5,345.5C 691.459,344.34 695.459,344.173 699.5,345C 697.316,347.016 695.316,349.183 693.5,351.5C 696.87,352.87 699.203,355.203 700.5,358.5 Z"/></g>
<g><path style="opacity:1" fill="#e8e8e8" d="M 729.5,358.5 C 729.5,359.833 729.5,361.167 729.5,362.5C 728.351,366.003 725.851,367.669 722,367.5C 718.958,367.63 716.791,366.297 715.5,363.5C 715.833,363.167 716.167,362.833 716.5,362.5C 721.6,367.14 725.267,366.307 727.5,360C 727.561,358.289 726.894,356.956 725.5,356C 723.101,355.289 720.768,355.456 718.5,356.5C 717.692,356.192 717.025,355.692 716.5,355C 719.069,352.521 721.402,349.854 723.5,347C 721.1,346.814 718.766,346.314 716.5,345.5C 720.459,344.34 724.459,344.173 728.5,345C 726.316,347.016 724.316,349.183 722.5,351.5C 725.87,352.87 728.203,355.203 729.5,358.5 Z"/></g>
<g><path style="opacity:1" fill="#0a0a0b" d="M 656.5,355.5 C 663.488,354.648 665.822,357.481 663.5,364C 657.24,366.412 654.407,364.245 655,357.5C 655.717,356.956 656.217,356.289 656.5,355.5 Z"/></g>
<g><path style="opacity:1" fill="#e9e9e9" d="M 731.5,363.5 C 731.5,361.833 731.5,360.167 731.5,358.5C 732.29,357.206 733.29,356.039 734.5,355C 730.167,347 732.5,343.667 741.5,345C 745.08,347.926 745.413,351.26 742.5,355C 746.5,359 746.5,363 742.5,367C 737.819,368.481 734.152,367.314 731.5,363.5 Z"/></g>
<g><path style="opacity:1" fill="#101011" d="M 735.5,356.5 C 743.543,356.003 745.21,358.836 740.5,365C 733.946,364.957 732.279,362.123 735.5,356.5 Z"/></g>
<g><path style="opacity:1" fill="#131313" d="M 736.5,346.5 C 741.486,346.305 743.152,348.472 741.5,353C 734.561,354.574 732.894,352.407 736.5,346.5 Z"/></g>
<g><path style="opacity:1" fill="#909090" d="M 700.5,358.5 C 704.833,358.5 709.167,358.5 713.5,358.5C 713.5,359.5 713.5,360.5 713.5,361.5C 709.069,361.231 704.735,361.564 700.5,362.5C 700.5,361.167 700.5,359.833 700.5,358.5 Z"/></g>
<g><path style="opacity:1" fill="#797979" d="M 729.5,358.5 C 730.167,358.5 730.833,358.5 731.5,358.5C 731.5,360.167 731.5,361.833 731.5,363.5C 730.833,363.167 730.167,362.833 729.5,362.5C 729.5,361.167 729.5,359.833 729.5,358.5 Z"/></g>
<g><path style="opacity:1" fill="#666666" d="M 608.5,363.5 C 611.287,364.477 614.287,364.81 617.5,364.5C 617.737,365.791 617.404,366.791 616.5,367.5C 613.645,365.75 610.311,364.917 606.5,365C 607.044,364.283 607.711,363.783 608.5,363.5 Z"/></g>
<g><path style="opacity:1" fill="#fafafa" d="M 645.5,394.5 C 646.825,398.276 647.491,402.443 647.5,407C 647.167,411.167 646.833,415.333 646.5,419.5C 645.502,411.193 645.169,402.86 645.5,394.5 Z"/></g>
<g><path style="opacity:1" fill="#ebebeb" d="M 708.5,419.5 C 704.939,419.252 701.272,419.085 697.5,419C 693.878,414.998 693.544,410.665 696.5,406C 700.025,403.872 703.358,404.039 706.5,406.5C 707.324,402.688 707.824,398.688 708,394.5C 708.5,402.827 708.666,411.16 708.5,419.5 Z"/></g>
<g><path style="opacity:1" fill="#b4b4b4" d="M 708.5,419.5 C 708.666,411.16 708.5,402.827 708,394.5C 707.824,398.688 707.324,402.688 706.5,406.5C 706.5,402.167 706.5,397.833 706.5,393.5C 707.5,393.5 708.5,393.5 709.5,393.5C 709.826,402.349 709.493,411.016 708.5,419.5 Z"/></g>
<g><path style="opacity:1" fill="#f0f0f0" d="M 619.5,399.5 C 621.028,400.802 622.028,402.469 622.5,404.5C 624.179,404.285 625.179,404.952 625.5,406.5C 624.167,406.5 622.833,406.5 621.5,406.5C 621.5,410.833 621.5,415.167 621.5,419.5C 619.57,415.627 618.903,411.294 619.5,406.5C 615.5,405.833 615.5,405.167 619.5,404.5C 619.5,402.833 619.5,401.167 619.5,399.5 Z"/></g>
<g><path style="opacity:1" fill="#848484" d="M 619.5,399.5 C 620.209,398.596 621.209,398.263 622.5,398.5C 622.5,400.5 622.5,402.5 622.5,404.5C 622.028,402.469 621.028,400.802 619.5,399.5 Z"/></g>
<g><path style="opacity:1" fill="#e9e9e9" d="M 576.5,404.5 C 577.75,404.577 578.583,405.244 579,406.5C 581.925,403.941 584.925,403.941 588,406.5C 595.299,402.601 598.466,404.935 597.5,413.5C 597.167,415.5 596.833,417.5 596.5,419.5C 595.675,415.878 595.175,412.211 595,408.5C 593,405.833 591,405.833 589,408.5C 588.501,412.152 588.335,415.818 588.5,419.5C 587.5,419.5 586.5,419.5 585.5,419.5C 585.666,415.486 585.499,411.486 585,407.5C 582.46,406.124 580.46,406.79 579,409.5C 578.824,412.882 578.324,416.215 577.5,419.5C 576.506,414.544 576.173,409.544 576.5,404.5 Z"/></g>
<g><path style="opacity:1" fill="#d4d4d4" d="M 603.5,404.5 C 610.918,403.19 614.918,406.19 615.5,413.5C 611.154,413.334 606.821,413.501 602.5,414C 605.166,417.961 608.332,418.461 612,415.5C 612.5,415.833 613,416.167 613.5,416.5C 610.302,419.809 606.635,420.309 602.5,418C 598.419,413.218 598.752,408.718 603.5,404.5 Z"/></g>
<g><path style="opacity:1" fill="#eeeeee" d="M 630.5,404.5 C 633.602,404.154 636.435,404.821 639,406.5C 639.308,405.692 639.808,405.025 640.5,404.5C 641.833,409.5 641.833,414.5 640.5,419.5C 639.676,417.252 638.676,417.086 637.5,419C 629.385,420.218 625.885,416.718 627,408.5C 628.376,407.295 629.542,405.962 630.5,404.5 Z"/></g>
<g><path style="opacity:1" fill="#dbdbdb" d="M 654.5,404.5 C 659.315,403.52 662.982,405.02 665.5,409C 662.383,407.822 659.05,407.489 655.5,408C 652.294,412.457 653.294,415.624 658.5,417.5C 660.447,416.723 662.28,415.723 664,414.5C 665.726,415.648 665.559,416.815 663.5,418C 654.961,421.451 650.794,418.618 651,409.5C 651.997,407.677 653.164,406.01 654.5,404.5 Z"/></g>
<g><path style="opacity:1" fill="#e1e1e1" d="M 671.5,404.5 C 675.263,405.087 678.929,405.087 682.5,404.5C 682.5,409.5 682.5,414.5 682.5,419.5C 678.592,419.162 674.592,418.995 670.5,419C 667.606,416.091 666.773,412.591 668,408.5C 668.69,406.65 669.856,405.316 671.5,404.5 Z"/></g>
<g><path style="opacity:1" fill="#e1e1e1" d="M 757.5,404.5 C 761.741,403.75 765.074,405.083 767.5,408.5C 764.131,407.716 760.631,407.716 757,408.5C 755.681,417.685 758.848,419.685 766.5,414.5C 767.282,416.329 766.616,417.829 764.5,419C 756,420.5 752.5,417 754,408.5C 755.376,407.295 756.542,405.962 757.5,404.5 Z"/></g>
<g><path style="opacity:1" fill="#e1e1e1" d="M 781.5,404.5 C 785.741,403.75 789.074,405.083 791.5,408.5C 788.131,407.716 784.631,407.716 781,408.5C 779.681,417.685 782.848,419.685 790.5,414.5C 791.282,416.329 790.616,417.829 788.5,419C 780,420.5 776.5,417 778,408.5C 779.376,407.295 780.542,405.962 781.5,404.5 Z"/></g>
<g><path style="opacity:1" fill="#e1e1e1" d="M 797.5,404.5 C 808.515,404.065 811.515,408.565 806.5,418C 797.457,421.292 793.29,418.126 794,408.5C 795.376,407.295 796.542,405.962 797.5,404.5 Z"/></g>
<g><path style="opacity:1" fill="#e2e2e2" d="M 811.5,404.5 C 814.684,404.833 818.018,405 821.5,405C 822.833,407 824.167,407 825.5,405C 828.636,403.959 831.136,404.793 833,407.5C 833.499,411.486 833.666,415.486 833.5,419.5C 832.5,419.5 831.5,419.5 830.5,419.5C 830.666,415.486 830.499,411.486 830,407.5C 827.733,406.065 825.733,406.398 824,408.5C 823.825,412.211 823.325,415.878 822.5,419.5C 821.833,415.5 821.167,411.5 820.5,407.5C 818.356,406.047 816.523,406.38 815,408.5C 814.501,412.152 814.335,415.818 814.5,419.5C 813.5,419.5 812.5,419.5 811.5,419.5C 811.5,414.5 811.5,409.5 811.5,404.5 Z"/></g>
<g><path style="opacity:1" fill="#d8d8d8" d="M 685.5,404.5 C 688.062,405.371 690.728,405.371 693.5,404.5C 693.5,405.5 693.5,406.5 693.5,407.5C 691.856,407.286 690.356,407.62 689,408.5C 688.501,412.152 688.335,415.818 688.5,419.5C 687.5,419.5 686.5,419.5 685.5,419.5C 685.5,414.5 685.5,409.5 685.5,404.5 Z"/></g>
<g><path style="opacity:1" fill="#dadada" d="M 714.5,404.5 C 717.908,403.828 720.575,404.828 722.5,407.5C 722,407.833 721.5,408.167 721,408.5C 719.079,406.997 716.912,406.331 714.5,406.5C 714.351,407.552 714.517,408.552 715,409.5C 717.071,410.525 719.238,411.358 721.5,412C 724.167,414.333 724.167,416.667 721.5,419C 718.007,420.004 714.841,419.504 712,417.5C 711.409,416.517 711.743,415.85 713,415.5C 715.256,417.085 717.756,417.752 720.5,417.5C 720.67,416.178 720.337,415.011 719.5,414C 716.692,413.402 714.192,412.235 712,410.5C 711.034,407.66 711.867,405.66 714.5,404.5 Z"/></g>
<g><path style="opacity:1" fill="#f6f6f6" d="M 725.5,404.5 C 726.75,404.577 727.583,405.244 728,406.5C 731,403.833 734,403.833 737,406.5C 737.828,410.871 737.661,415.205 736.5,419.5C 735.673,415.541 735.173,411.541 735,407.5C 731.592,405.777 729.259,406.777 728,410.5C 727.821,413.553 727.321,416.553 726.5,419.5C 725.506,414.544 725.173,409.544 725.5,404.5 Z"/></g>
<g><path style="opacity:1" fill="#dddddd" d="M 739.5,404.5 C 740.675,404.281 741.675,404.614 742.5,405.5C 743.306,408.446 744.639,411.112 746.5,413.5C 747.829,410.842 749.162,408.176 750.5,405.5C 751.365,404.417 752.365,404.251 753.5,405C 750.227,413.177 746.394,421.011 742,428.5C 741.5,428.167 741,427.833 740.5,427.5C 742.132,424.104 743.465,420.604 744.5,417C 742.966,412.768 741.3,408.601 739.5,404.5 Z"/></g>
<g><path style="opacity:1" fill="#101011" d="M 605.5,406.5 C 608.657,406.079 610.99,407.245 612.5,410C 609.167,410.667 605.833,410.667 602.5,410C 603.71,408.961 604.71,407.794 605.5,406.5 Z"/></g>
<g><path style="opacity:1" fill="#7b7b7b" d="M 625.5,406.5 C 624.791,407.404 623.791,407.737 622.5,407.5C 622.817,411.702 622.483,415.702 621.5,419.5C 621.5,415.167 621.5,410.833 621.5,406.5C 622.833,406.5 624.167,406.5 625.5,406.5 Z"/></g>
<g><path style="opacity:1" fill="#171717" d="M 631.5,406.5 C 639.818,406.987 641.485,410.487 636.5,417C 629.999,417.812 627.832,414.979 630,408.5C 630.717,407.956 631.217,407.289 631.5,406.5 Z"/></g>
<g><path style="opacity:1" fill="#0e0e0e" d="M 672.5,406.5 C 677.813,406.644 679.979,409.31 679,414.5C 676.048,418.482 673.048,418.482 670,414.5C 669.018,411.225 669.851,408.559 672.5,406.5 Z"/></g>
<g><path style="opacity:1" fill="#0e0e0e" d="M 699.5,406.5 C 704.813,406.644 706.979,409.31 706,414.5C 703.048,418.482 700.048,418.482 697,414.5C 696.018,411.225 696.851,408.559 699.5,406.5 Z"/></g>
<g><path style="opacity:1" fill="#101010" d="M 799.5,406.5 C 806.968,407.674 808.301,411.174 803.5,417C 796.947,417.763 794.781,414.93 797,408.5C 797.995,407.934 798.828,407.267 799.5,406.5 Z"/></g>
<g><path style="opacity:1" fill="#e7e7e7" d="M 770.5,416.5 C 771.833,416.5 773.167,416.5 774.5,416.5C 774.5,417.5 774.5,418.5 774.5,419.5C 773.167,419.5 771.833,419.5 770.5,419.5C 770.5,418.5 770.5,417.5 770.5,416.5 Z"/></g>
<g><path style="opacity:1" fill="#d6d6d6" d="M 688.5,446.5 C 689.5,446.5 690.5,446.5 691.5,446.5C 691.334,451.844 691.501,457.177 692,462.5C 693.62,460.759 695.12,458.925 696.5,457C 697.5,456.333 698.5,456.333 699.5,457C 697.819,459.344 696.152,461.677 694.5,464C 696.112,466.616 698.112,468.95 700.5,471C 699.167,471.667 697.833,471.667 696.5,471C 692.822,464.019 691.156,464.185 691.5,471.5C 690.5,471.5 689.5,471.5 688.5,471.5C 688.5,463.167 688.5,454.833 688.5,446.5 Z"/></g>
<g><path style="opacity:1" fill="#e7e7e7" d="M 831.5,462.5 C 832.931,460.563 834.598,458.73 836.5,457C 837.5,456.333 838.5,456.333 839.5,457C 837.5,459.333 835.5,461.667 833.5,464C 835.874,466.039 837.874,468.372 839.5,471C 838.5,471.667 837.5,471.667 836.5,471C 835.12,469.075 833.62,467.241 832,465.5C 831.998,468.051 831.164,470.051 829.5,471.5C 829.334,463.16 829.5,454.827 830,446.5C 830.173,452.016 830.673,457.349 831.5,462.5 Z"/></g>
<g><path style="opacity:1" fill="#a3a3a3" d="M 831.5,462.5 C 830.673,457.349 830.173,452.016 830,446.5C 829.5,454.827 829.334,463.16 829.5,471.5C 828.507,463.016 828.174,454.349 828.5,445.5C 829.5,445.5 830.5,445.5 831.5,445.5C 831.5,451.167 831.5,456.833 831.5,462.5 Z"/></g>
<g><path style="opacity:1" fill="#707070" d="M 717.5,448.5 C 716.508,455.982 716.175,463.648 716.5,471.5C 715.18,463.657 715.18,455.657 716.5,447.5C 717.107,447.624 717.44,447.957 717.5,448.5 Z"/></g>
<g><path style="opacity:1" fill="#f2f2f2" d="M 576.5,448.5 C 580.803,453.647 584.97,458.98 589,464.5C 589.171,459.136 589.671,453.802 590.5,448.5C 591.665,456.479 591.832,464.479 591,472.5C 587.246,466.658 583.246,460.991 579,455.5C 578.829,460.864 578.329,466.198 577.5,471.5C 576.503,463.862 576.169,456.196 576.5,448.5 Z"/></g>
<g><path style="opacity:1" fill="#f0f0f0" d="M 717.5,448.5 C 720.833,453.5 724.167,458.5 727.5,463.5C 727.783,464.289 728.283,464.956 729,465.5C 729.499,459.843 729.666,454.176 729.5,448.5C 730.824,452.107 731.491,456.107 731.5,460.5C 731.333,464.5 731.167,468.5 731,472.5C 727.246,466.658 723.246,460.991 719,455.5C 719.122,461.26 718.289,466.593 716.5,471.5C 716.175,463.648 716.508,455.982 717.5,448.5 Z"/></g>
<g><path style="opacity:1" fill="#888888" d="M 729.5,448.5 C 729.666,454.176 729.499,459.843 729,465.5C 728.283,464.956 727.783,464.289 727.5,463.5C 728.167,458.5 728.833,453.5 729.5,448.5 Z"/></g>
<g><path style="opacity:1" fill="#dbdbdb" d="M 641.5,449.5 C 642.251,448.427 643.251,448.26 644.5,449C 646.667,451.833 648.833,454.667 651,457.5C 653.167,454.667 655.333,451.833 657.5,449C 658.5,448.333 659.5,448.333 660.5,449C 658.368,452.764 655.868,456.264 653,459.5C 652.501,463.486 652.334,467.486 652.5,471.5C 651.5,471.5 650.5,471.5 649.5,471.5C 649.666,467.486 649.499,463.486 649,459.5C 646.723,455.92 644.223,452.586 641.5,449.5 Z"/></g>
<g><path style="opacity:1" fill="#dbdbdb" d="M 781.5,449.5 C 782.251,448.427 783.251,448.26 784.5,449C 786.667,451.833 788.833,454.667 791,457.5C 793.167,454.667 795.333,451.833 797.5,449C 798.5,448.333 799.5,448.333 800.5,449C 798.368,452.764 795.868,456.264 793,459.5C 792.501,463.486 792.334,467.486 792.5,471.5C 791.5,471.5 790.5,471.5 789.5,471.5C 789.666,467.486 789.499,463.486 789,459.5C 786.723,455.92 784.223,452.586 781.5,449.5 Z"/></g>
<g><path style="opacity:1" fill="#e7e7e7" d="M 609.5,464.5 C 605.116,464.174 600.783,464.508 596.5,465.5C 596.624,466.107 596.957,466.44 597.5,466.5C 598.317,468.478 599.817,469.478 602,469.5C 604.076,468.388 606.243,467.888 608.5,468C 603.848,472.766 599.348,472.599 595,467.5C 594.239,457.932 598.406,454.765 607.5,458C 609.016,459.897 609.683,462.064 609.5,464.5 Z"/></g>
<g><path style="opacity:1" fill="#e1e1e1" d="M 665.5,456.5 C 676.515,456.065 679.515,460.565 674.5,470C 665.457,473.292 661.29,470.126 662,460.5C 663.376,459.295 664.542,457.962 665.5,456.5 Z"/></g>
<g><path style="opacity:1" fill="#eeeeee" d="M 749.5,464.5 C 745.116,464.174 740.783,464.508 736.5,465.5C 736.624,466.107 736.957,466.44 737.5,466.5C 738.249,468.246 739.583,469.246 741.5,469.5C 743.761,468.352 746.095,467.852 748.5,468C 744.35,472.473 740.017,472.639 735.5,468.5C 732.696,459.262 736.029,455.429 745.5,457C 748.397,458.715 749.731,461.215 749.5,464.5 Z"/></g>
<g><path style="opacity:1" fill="#f2f2f2" d="M 805.5,456.5 C 813.656,455.821 817.156,459.488 816,467.5C 811.333,472.833 806.667,472.833 802,467.5C 800.662,462.96 801.829,459.293 805.5,456.5 Z"/></g>
<g><path style="opacity:1" fill="#e4e4e4" d="M 610.5,456.5 C 611.496,456.414 612.329,456.748 613,457.5C 614.333,460.833 615.667,464.167 617,467.5C 618.667,463.833 620.333,460.167 622,456.5C 623.667,460.167 625.333,463.833 627,467.5C 628.333,464.167 629.667,460.833 631,457.5C 631.893,456.289 632.726,456.289 633.5,457.5C 631.333,462.5 629.167,467.5 627,472.5C 625.333,469.167 623.667,465.833 622,462.5C 620.525,465.921 618.859,469.254 617,472.5C 614.544,467.259 612.377,461.925 610.5,456.5 Z"/></g>
<g><path style="opacity:1" fill="#d8d8d8" d="M 679.5,456.5 C 682.062,457.371 684.728,457.371 687.5,456.5C 687.5,457.5 687.5,458.5 687.5,459.5C 685.856,459.286 684.356,459.62 683,460.5C 682.501,464.152 682.335,467.818 682.5,471.5C 681.5,471.5 680.5,471.5 679.5,471.5C 679.5,466.5 679.5,461.5 679.5,456.5 Z"/></g>
<g><path style="opacity:1" fill="#e4e4e4" d="M 750.5,456.5 C 751.496,456.414 752.329,456.748 753,457.5C 754.333,460.833 755.667,464.167 757,467.5C 758.667,463.833 760.333,460.167 762,456.5C 763.667,460.167 765.333,463.833 767,467.5C 768.333,464.167 769.667,460.833 771,457.5C 771.893,456.289 772.726,456.289 773.5,457.5C 771.333,462.5 769.167,467.5 767,472.5C 765.333,469.167 763.667,465.833 762,462.5C 760.525,465.921 758.859,469.254 757,472.5C 754.544,467.259 752.377,461.925 750.5,456.5 Z"/></g>
<g><path style="opacity:1" fill="#eeeeee" d="M 819.5,456.5 C 820.75,456.577 821.583,457.244 822,458.5C 823.444,456.845 825.278,456.178 827.5,456.5C 827.5,457.5 827.5,458.5 827.5,459.5C 825.856,459.286 824.356,459.62 823,460.5C 821.986,464.099 821.153,467.765 820.5,471.5C 819.506,466.544 819.173,461.544 819.5,456.5 Z"/></g>
<g><path style="opacity:1" fill="#101011" d="M 599.5,458.5 C 602.463,458.151 604.796,459.151 606.5,461.5C 603.5,462.833 600.5,462.833 597.5,461.5C 598.193,460.482 598.859,459.482 599.5,458.5 Z"/></g>
<g><path style="opacity:1" fill="#101010" d="M 667.5,458.5 C 674.968,459.674 676.301,463.174 671.5,469C 664.947,469.763 662.781,466.93 665,460.5C 665.995,459.934 666.828,459.267 667.5,458.5 Z"/></g>
<g><path style="opacity:1" fill="#111111" d="M 746.5,462.5 C 743.287,462.81 740.287,462.477 737.5,461.5C 739.527,458.164 742.193,457.664 745.5,460C 746.252,460.671 746.586,461.504 746.5,462.5 Z"/></g>
<g><path style="opacity:1" fill="#171717" d="M 806.5,458.5 C 814.774,458.929 816.44,462.429 811.5,469C 803.088,468.812 801.421,465.312 806.5,458.5 Z"/></g>
<g><path style="opacity:1" fill="#8e8e8e" d="M 737.5,461.5 C 740.287,462.477 743.287,462.81 746.5,462.5C 743.313,463.806 739.98,463.806 736.5,462.5C 736.624,461.893 736.957,461.56 737.5,461.5 Z"/></g>
<g><path style="opacity:1" fill="#7c7c7c" d="M 609.5,464.5 C 605.5,465.167 601.5,465.833 597.5,466.5C 596.957,466.44 596.624,466.107 596.5,465.5C 600.783,464.508 605.116,464.174 609.5,464.5 Z"/></g>
<g><path style="opacity:1" fill="#767676" d="M 749.5,464.5 C 745.5,465.167 741.5,465.833 737.5,466.5C 736.957,466.44 736.624,466.107 736.5,465.5C 740.783,464.508 745.116,464.174 749.5,464.5 Z"/></g>
<g><path style="opacity:1" fill="#e1e1e1" d="M 702.5,467.5 C 703.5,467.5 704.5,467.5 705.5,467.5C 702.053,479.13 701.053,479.13 702.5,467.5 Z"/></g>
</svg>
