<?xml version="1.0" encoding="UTF-8"?>
<!DOCTYPE svg PUBLIC "-//W3C//DTD SVG 1.1//EN" "http://www.w3.org/Graphics/SVG/1.1/DTD/svg11.dtd">
<svg xmlns="http://www.w3.org/2000/svg" version="1.1" width="1050px" height="600px" style="shape-rendering:geometricPrecision; text-rendering:geometricPrecision; image-rendering:optimizeQuality; fill-rule:evenodd; clip-rule:evenodd" xmlns:xlink="http://www.w3.org/1999/xlink">
<g><path style="opacity:1" fill="#000001" d="M -0.5,-0.5 C 349.5,-0.5 699.5,-0.5 1049.5,-0.5C 1049.5,199.5 1049.5,399.5 1049.5,599.5C 699.5,599.5 349.5,599.5 -0.5,599.5C -0.5,399.5 -0.5,199.5 -0.5,-0.5 Z"/></g>
<g><path style="opacity:1" fill="#fcfcfc" d="M 311.5,91.5 C 453.5,91.5 595.5,91.5 737.5,91.5C 737.5,230.167 737.5,368.833 737.5,507.5C 595.5,507.5 453.5,507.5 311.5,507.5C 311.5,368.833 311.5,230.167 311.5,91.5 Z"/></g>
<g><path style="opacity:1" fill="#010101" d="M 331.5,107.5 C 362.5,107.5 393.5,107.5 424.5,107.5C 424.5,138.5 424.5,169.5 424.5,200.5C 411.5,200.5 398.5,200.5 385.5,200.5C 385.5,196.5 385.5,192.5 385.5,188.5C 394.5,188.5 403.5,188.5 412.5,188.5C 412.831,165.661 412.497,142.994 411.5,120.5C 389.167,120.5 366.833,120.5 344.5,120.5C 343.504,133.656 343.171,146.99 343.5,160.5C 339.5,160.5 335.5,160.5 331.5,160.5C 331.5,142.833 331.5,125.167 331.5,107.5 Z"/></g>
<g><path style="opacity:1" fill="#030303" d="M 479.5,107.5 C 492.833,107.5 506.167,107.5 519.5,107.5C 519.5,111.833 519.5,116.167 519.5,120.5C 506.167,120.5 492.833,120.5 479.5,120.5C 479.5,116.167 479.5,111.833 479.5,107.5 Z"/></g>
<g><path style="opacity:1" fill="#080808" d="M 533.5,107.5 C 537.833,107.5 542.167,107.5 546.5,107.5C 546.5,111.833 546.5,116.167 546.5,120.5C 546.5,116.167 546.5,111.833 546.5,107.5C 542.167,107.5 537.833,107.5 533.5,107.5 Z"/></g>
<g><path style="opacity:1" fill="#020202" d="M 720.5,107.5 C 720.5,138.5 720.5,169.5 720.5,200.5C 716.5,200.5 712.5,200.5 708.5,200.5C 708.5,196.5 708.5,192.5 708.5,188.5C 708.831,165.661 708.497,142.994 707.5,120.5C 685.167,120.5 662.833,120.5 640.5,120.5C 640.5,142.833 640.5,165.167 640.5,187.5C 662.66,188.497 684.994,188.831 707.5,188.5C 707.5,192.5 707.5,196.5 707.5,200.5C 680.833,200.5 654.167,200.5 627.5,200.5C 627.5,169.5 627.5,138.5 627.5,107.5C 658.5,107.5 689.5,107.5 720.5,107.5 Z"/></g>
<g><path style="opacity:1" fill="#9f9f9f" d="M 573.5,107.5 C 573.5,116.167 573.5,124.833 573.5,133.5C 577.833,133.5 582.167,133.5 586.5,133.5C 586.5,124.833 586.5,116.167 586.5,107.5C 587.493,116.318 587.827,125.318 587.5,134.5C 582.833,134.5 578.167,134.5 573.5,134.5C 573.167,134.5 572.833,134.5 572.5,134.5C 568.5,134.5 564.5,134.5 560.5,134.5C 560.167,134.5 559.833,134.5 559.5,134.5C 563.634,133.515 567.968,133.182 572.5,133.5C 572.174,124.651 572.507,115.984 573.5,107.5 Z"/></g>
<g><path style="opacity:1" fill="#757575" d="M 479.5,107.5 C 479.5,111.833 479.5,116.167 479.5,120.5C 479.5,120.833 479.5,121.167 479.5,121.5C 479.5,125.5 479.5,129.5 479.5,133.5C 484.032,133.182 488.366,133.515 492.5,134.5C 492.167,134.5 491.833,134.5 491.5,134.5C 487.5,134.5 483.5,134.5 479.5,134.5C 479.5,138.833 479.5,143.167 479.5,147.5C 479.167,147.5 478.833,147.5 478.5,147.5C 478.5,143.167 478.5,138.833 478.5,134.5C 469.833,134.5 461.167,134.5 452.5,134.5C 460.984,133.507 469.651,133.174 478.5,133.5C 478.5,129.5 478.5,125.5 478.5,121.5C 473.968,121.818 469.634,121.485 465.5,120.5C 469.833,120.5 474.167,120.5 478.5,120.5C 478.182,115.968 478.515,111.634 479.5,107.5 Z"/></g>
<g><path style="opacity:1" fill="#a4a4a4" d="M 479.5,121.5 C 479.5,121.167 479.5,120.833 479.5,120.5C 492.833,120.5 506.167,120.5 519.5,120.5C 519.5,120.833 519.5,121.167 519.5,121.5C 519.5,125.5 519.5,129.5 519.5,133.5C 519.5,133.833 519.5,134.167 519.5,134.5C 515.167,134.5 510.833,134.5 506.5,134.5C 506.5,138.833 506.5,143.167 506.5,147.5C 506.5,151.833 506.5,156.167 506.5,160.5C 506.167,160.5 505.833,160.5 505.5,160.5C 505.5,156.5 505.5,152.5 505.5,148.5C 505.5,148.167 505.5,147.833 505.5,147.5C 505.5,142.833 505.5,138.167 505.5,133.5C 509.833,133.5 514.167,133.5 518.5,133.5C 518.5,129.5 518.5,125.5 518.5,121.5C 505.5,121.5 492.5,121.5 479.5,121.5 Z"/></g>
<g><path style="opacity:1" fill="#fbfbfb" d="M 344.5,120.5 C 366.833,120.5 389.167,120.5 411.5,120.5C 411.5,142.833 411.5,165.167 411.5,187.5C 389.167,187.5 366.833,187.5 344.5,187.5C 344.5,165.167 344.5,142.833 344.5,120.5 Z"/></g>
<g><path style="opacity:1" fill="#4a4a4a" d="M 452.5,107.5 C 452.5,112.167 452.5,116.833 452.5,121.5C 448.167,121.5 443.833,121.5 439.5,121.5C 439.5,130.167 439.5,138.833 439.5,147.5C 439.167,147.5 438.833,147.5 438.5,147.5C 438.5,138.5 438.5,129.5 438.5,120.5C 442.833,120.5 447.167,120.5 451.5,120.5C 451.182,115.968 451.515,111.634 452.5,107.5 Z"/></g>
<g><path style="opacity:1" fill="#020202" d="M 452.5,107.5 C 456.833,107.5 461.167,107.5 465.5,107.5C 465.5,111.833 465.5,116.167 465.5,120.5C 469.634,121.485 473.968,121.818 478.5,121.5C 478.5,125.5 478.5,129.5 478.5,133.5C 469.651,133.174 460.984,133.507 452.5,134.5C 451.515,138.634 451.182,142.968 451.5,147.5C 447.5,147.5 443.5,147.5 439.5,147.5C 439.5,138.833 439.5,130.167 439.5,121.5C 443.833,121.5 448.167,121.5 452.5,121.5C 452.5,116.833 452.5,112.167 452.5,107.5 Z"/></g>
<g><path style="opacity:1" fill="#fdfdfd" d="M 479.5,121.5 C 492.5,121.5 505.5,121.5 518.5,121.5C 518.5,125.5 518.5,129.5 518.5,133.5C 514.167,133.5 509.833,133.5 505.5,133.5C 505.5,138.167 505.5,142.833 505.5,147.5C 501.167,147.5 496.833,147.5 492.5,147.5C 492.5,143.167 492.5,138.833 492.5,134.5C 488.366,133.515 484.032,133.182 479.5,133.5C 479.5,129.5 479.5,125.5 479.5,121.5 Z"/></g>
<g><path style="opacity:1" fill="#010101" d="M 519.5,121.5 C 523.833,121.5 528.167,121.5 532.5,121.5C 532.5,125.5 532.5,129.5 532.5,133.5C 528.167,133.5 523.833,133.5 519.5,133.5C 519.5,129.5 519.5,125.5 519.5,121.5 Z"/></g>
<g><path style="opacity:1" fill="#7d7d7d" d="M 533.5,107.5 C 533.5,111.833 533.5,116.167 533.5,120.5C 537.833,120.5 542.167,120.5 546.5,120.5C 542.366,121.485 538.032,121.818 533.5,121.5C 533.5,125.833 533.5,130.167 533.5,134.5C 528.833,134.5 524.167,134.5 519.5,134.5C 519.5,134.167 519.5,133.833 519.5,133.5C 523.833,133.5 528.167,133.5 532.5,133.5C 532.5,129.5 532.5,125.5 532.5,121.5C 528.167,121.5 523.833,121.5 519.5,121.5C 519.5,121.167 519.5,120.833 519.5,120.5C 523.833,120.5 528.167,120.5 532.5,120.5C 532.182,115.968 532.515,111.634 533.5,107.5 Z"/></g>
<g><path style="opacity:1" fill="#010101" d="M 573.5,107.5 C 577.833,107.5 582.167,107.5 586.5,107.5C 586.5,116.167 586.5,124.833 586.5,133.5C 582.167,133.5 577.833,133.5 573.5,133.5C 573.5,124.833 573.5,116.167 573.5,107.5 Z"/></g>
<g><path style="opacity:1" fill="#020202" d="M 600.5,107.5 C 604.833,107.5 609.167,107.5 613.5,107.5C 613.5,120.833 613.5,134.167 613.5,147.5C 609.167,147.5 604.833,147.5 600.5,147.5C 600.5,134.167 600.5,120.833 600.5,107.5 Z"/></g>
<g><path style="opacity:1" fill="#c9c9c9" d="M 707.5,120.5 C 707.5,120.833 707.5,121.167 707.5,121.5C 685.5,121.5 663.5,121.5 641.5,121.5C 641.5,143.5 641.5,165.5 641.5,187.5C 641.167,187.5 640.833,187.5 640.5,187.5C 640.5,165.167 640.5,142.833 640.5,120.5C 662.833,120.5 685.167,120.5 707.5,120.5 Z"/></g>
<g><path style="opacity:1" fill="#fcfcfc" d="M 707.5,121.5 C 707.5,143.5 707.5,165.5 707.5,187.5C 685.5,187.5 663.5,187.5 641.5,187.5C 641.5,165.5 641.5,143.5 641.5,121.5C 663.5,121.5 685.5,121.5 707.5,121.5 Z"/></g>
<g><path style="opacity:1" fill="#494949" d="M 331.5,107.5 C 331.5,125.167 331.5,142.833 331.5,160.5C 335.5,160.5 339.5,160.5 343.5,160.5C 343.171,146.99 343.504,133.656 344.5,120.5C 344.5,142.833 344.5,165.167 344.5,187.5C 344.5,187.833 344.5,188.167 344.5,188.5C 343.507,179.682 343.173,170.682 343.5,161.5C 339.5,161.5 335.5,161.5 331.5,161.5C 331.5,174.5 331.5,187.5 331.5,200.5C 331.5,200.833 331.5,201.167 331.5,201.5C 330.167,170.167 330.167,138.833 331.5,107.5 Z"/></g>
<g><path style="opacity:1" fill="#fcfcfc" d="M 452.5,134.5 C 461.167,134.5 469.833,134.5 478.5,134.5C 478.5,138.833 478.5,143.167 478.5,147.5C 469.833,147.5 461.167,147.5 452.5,147.5C 452.5,143.167 452.5,138.833 452.5,134.5 Z"/></g>
<g><path style="opacity:1" fill="#000000" d="M 491.5,134.5 C 491.666,138.514 491.499,142.514 491,146.5C 487.27,147.46 483.437,147.793 479.5,147.5C 479.5,143.167 479.5,138.833 479.5,134.5C 483.5,134.5 487.5,134.5 491.5,134.5 Z"/></g>
<g><path style="opacity:1" fill="#050505" d="M 519.5,134.5 C 519.5,138.833 519.5,143.167 519.5,147.5C 515.167,147.5 510.833,147.5 506.5,147.5C 506.5,143.167 506.5,138.833 506.5,134.5C 510.833,134.5 515.167,134.5 519.5,134.5 Z"/></g>
<g><path style="opacity:1" fill="#707070" d="M 397.5,174.5 C 397.5,161.167 397.5,147.833 397.5,134.5C 384.5,134.5 371.5,134.5 358.5,134.5C 358.5,147.833 358.5,161.167 358.5,174.5C 357.504,161.01 357.171,147.344 357.5,133.5C 371.167,133.5 384.833,133.5 398.5,133.5C 398.829,147.344 398.496,161.01 397.5,174.5 Z"/></g>
<g><path style="opacity:1" fill="#030303" d="M 397.5,174.5 C 384.5,174.5 371.5,174.5 358.5,174.5C 358.5,161.167 358.5,147.833 358.5,134.5C 371.5,134.5 384.5,134.5 397.5,134.5C 397.5,147.833 397.5,161.167 397.5,174.5 Z"/></g>
<g><path style="opacity:1" fill="#282828" d="M 491.5,134.5 C 491.833,134.5 492.167,134.5 492.5,134.5C 492.5,138.833 492.5,143.167 492.5,147.5C 496.833,147.5 501.167,147.5 505.5,147.5C 505.5,147.833 505.5,148.167 505.5,148.5C 487.833,148.5 470.167,148.5 452.5,148.5C 452.5,148.167 452.5,147.833 452.5,147.5C 461.167,147.5 469.833,147.5 478.5,147.5C 478.833,147.5 479.167,147.5 479.5,147.5C 483.437,147.793 487.27,147.46 491,146.5C 491.499,142.514 491.666,138.514 491.5,134.5 Z"/></g>
<g><path style="opacity:1" fill="#929292" d="M 452.5,134.5 C 452.5,138.833 452.5,143.167 452.5,147.5C 452.5,147.833 452.5,148.167 452.5,148.5C 452.5,157.167 452.5,165.833 452.5,174.5C 451.507,166.016 451.174,157.349 451.5,148.5C 446.968,148.818 442.634,148.485 438.5,147.5C 438.833,147.5 439.167,147.5 439.5,147.5C 443.5,147.5 447.5,147.5 451.5,147.5C 451.182,142.968 451.515,138.634 452.5,134.5 Z"/></g>
<g><path style="opacity:1" fill="#020202" d="M 452.5,148.5 C 470.167,148.5 487.833,148.5 505.5,148.5C 505.5,152.5 505.5,156.5 505.5,160.5C 491.99,160.171 478.656,160.504 465.5,161.5C 465.5,165.833 465.5,170.167 465.5,174.5C 461.167,174.5 456.833,174.5 452.5,174.5C 452.5,165.833 452.5,157.167 452.5,148.5 Z"/></g>
<g><path style="opacity:1" fill="#676767" d="M 600.5,107.5 C 600.5,120.833 600.5,134.167 600.5,147.5C 600.5,151.833 600.5,156.167 600.5,160.5C 605.032,160.182 609.366,160.515 613.5,161.5C 608.833,161.5 604.167,161.5 599.5,161.5C 599.5,157.167 599.5,152.833 599.5,148.5C 595.5,148.5 591.5,148.5 587.5,148.5C 587.826,157.349 587.493,166.016 586.5,174.5C 586.5,165.5 586.5,156.5 586.5,147.5C 590.833,147.5 595.167,147.5 599.5,147.5C 599.171,133.99 599.504,120.656 600.5,107.5 Z"/></g>
<g><path style="opacity:1" fill="#6a6a6a" d="M 559.5,134.5 C 559.833,134.5 560.167,134.5 560.5,134.5C 560.5,143.167 560.5,151.833 560.5,160.5C 564.5,160.5 568.5,160.5 572.5,160.5C 572.5,151.833 572.5,143.167 572.5,134.5C 572.833,134.5 573.167,134.5 573.5,134.5C 573.5,143.5 573.5,152.5 573.5,161.5C 569.167,161.5 564.833,161.5 560.5,161.5C 560.818,166.032 560.485,170.366 559.5,174.5C 559.5,170.167 559.5,165.833 559.5,161.5C 554.833,161.5 550.167,161.5 545.5,161.5C 545.5,157.167 545.5,152.833 545.5,148.5C 541.5,148.5 537.5,148.5 533.5,148.5C 533.5,157.167 533.5,165.833 533.5,174.5C 532.507,165.682 532.173,156.682 532.5,147.5C 537.167,147.5 541.833,147.5 546.5,147.5C 546.5,151.833 546.5,156.167 546.5,160.5C 550.833,160.5 555.167,160.5 559.5,160.5C 559.5,151.833 559.5,143.167 559.5,134.5 Z"/></g>
<g><path style="opacity:1" fill="#000000" d="M 560.5,134.5 C 564.5,134.5 568.5,134.5 572.5,134.5C 572.5,143.167 572.5,151.833 572.5,160.5C 568.5,160.5 564.5,160.5 560.5,160.5C 560.5,151.833 560.5,143.167 560.5,134.5 Z"/></g>
<g><path style="opacity:1" fill="#3e3e3e" d="M 654.5,134.5 C 654.5,143.167 654.5,151.833 654.5,160.5C 667.5,160.5 680.5,160.5 693.5,160.5C 693.5,151.833 693.5,143.167 693.5,134.5C 694.833,147.833 694.833,161.167 693.5,174.5C 693.5,170.167 693.5,165.833 693.5,161.5C 680.5,161.5 667.5,161.5 654.5,161.5C 654.5,165.833 654.5,170.167 654.5,174.5C 653.167,161.167 653.167,147.833 654.5,134.5 Z"/></g>
<g><path style="opacity:1" fill="#010101" d="M 654.5,134.5 C 667.5,134.5 680.5,134.5 693.5,134.5C 693.5,143.167 693.5,151.833 693.5,160.5C 680.5,160.5 667.5,160.5 654.5,160.5C 654.5,151.833 654.5,143.167 654.5,134.5 Z"/></g>
<g><path style="opacity:1" fill="#010101" d="M 344.5,188.5 C 357.833,188.5 371.167,188.5 384.5,188.5C 384.5,192.5 384.5,196.5 384.5,200.5C 366.833,200.5 349.167,200.5 331.5,200.5C 331.5,187.5 331.5,174.5 331.5,161.5C 335.5,161.5 339.5,161.5 343.5,161.5C 343.173,170.682 343.507,179.682 344.5,188.5 Z"/></g>
<g><path style="opacity:1" fill="#2f2f2f" d="M 465.5,161.5 C 478.656,160.504 491.99,160.171 505.5,160.5C 505.833,160.5 506.167,160.5 506.5,160.5C 506.5,160.833 506.5,161.167 506.5,161.5C 506.5,165.5 506.5,169.5 506.5,173.5C 510.5,173.5 514.5,173.5 518.5,173.5C 518.5,169.5 518.5,165.5 518.5,161.5C 519.485,165.634 519.818,169.968 519.5,174.5C 510.5,174.5 501.5,174.5 492.5,174.5C 492.5,170.167 492.5,165.833 492.5,161.5C 483.5,161.5 474.5,161.5 465.5,161.5 Z"/></g>
<g><path style="opacity:1" fill="#000000" d="M 493.5,161.5 C 497.5,161.5 501.5,161.5 505.5,161.5C 505.5,165.5 505.5,169.5 505.5,173.5C 501.5,173.5 497.5,173.5 493.5,173.5C 493.5,169.5 493.5,165.5 493.5,161.5 Z"/></g>
<g><path style="opacity:1" fill="#000000" d="M 506.5,161.5 C 510.5,161.5 514.5,161.5 518.5,161.5C 518.5,165.5 518.5,169.5 518.5,173.5C 514.5,173.5 510.5,173.5 506.5,173.5C 506.5,169.5 506.5,165.5 506.5,161.5 Z"/></g>
<g><path style="opacity:1" fill="#020202" d="M 559.5,174.5 C 550.833,174.5 542.167,174.5 533.5,174.5C 533.5,165.833 533.5,157.167 533.5,148.5C 537.5,148.5 541.5,148.5 545.5,148.5C 545.5,152.833 545.5,157.167 545.5,161.5C 550.167,161.5 554.833,161.5 559.5,161.5C 559.5,165.833 559.5,170.167 559.5,174.5 Z"/></g>
<g><path style="opacity:1" fill="#949494" d="M 721.5,107.5 C 721.167,107.5 720.833,107.5 720.5,107.5C 689.5,107.5 658.5,107.5 627.5,107.5C 627.5,138.5 627.5,169.5 627.5,200.5C 627.5,200.833 627.5,201.167 627.5,201.5C 626.502,170.004 626.168,138.338 626.5,106.5C 658.338,106.168 690.004,106.502 721.5,107.5 Z"/></g>
<g><path style="opacity:1" fill="#020202" d="M 693.5,174.5 C 680.5,174.5 667.5,174.5 654.5,174.5C 654.5,170.167 654.5,165.833 654.5,161.5C 667.5,161.5 680.5,161.5 693.5,161.5C 693.5,165.833 693.5,170.167 693.5,174.5 Z"/></g>
<g><path style="opacity:1" fill="#080808" d="M 479.5,174.5 C 483.833,174.5 488.167,174.5 492.5,174.5C 492.5,178.833 492.5,183.167 492.5,187.5C 488.167,187.5 483.833,187.5 479.5,187.5C 479.5,183.167 479.5,178.833 479.5,174.5 Z"/></g>
<g><path style="opacity:1" fill="#020202" d="M 613.5,161.5 C 613.5,165.833 613.5,170.167 613.5,174.5C 609.167,174.5 604.833,174.5 600.5,174.5C 599.515,178.634 599.182,182.968 599.5,187.5C 595.167,187.5 590.833,187.5 586.5,187.5C 586.5,196.5 586.5,205.5 586.5,214.5C 582.167,214.5 577.833,214.5 573.5,214.5C 573.5,201.167 573.5,187.833 573.5,174.5C 577.833,174.5 582.167,174.5 586.5,174.5C 587.493,166.016 587.826,157.349 587.5,148.5C 591.5,148.5 595.5,148.5 599.5,148.5C 599.5,152.833 599.5,157.167 599.5,161.5C 604.167,161.5 608.833,161.5 613.5,161.5 Z"/></g>
<g><path style="opacity:1" fill="#717171" d="M 411.5,120.5 C 412.497,142.994 412.831,165.661 412.5,188.5C 403.5,188.5 394.5,188.5 385.5,188.5C 385.167,188.5 384.833,188.5 384.5,188.5C 371.167,188.5 357.833,188.5 344.5,188.5C 344.5,188.167 344.5,187.833 344.5,187.5C 366.833,187.5 389.167,187.5 411.5,187.5C 411.5,165.167 411.5,142.833 411.5,120.5 Z"/></g>
<g><path style="opacity:1" fill="#878787" d="M 600.5,174.5 C 600.5,178.833 600.5,183.167 600.5,187.5C 605.032,187.182 609.366,187.515 613.5,188.5C 609.167,188.5 604.833,188.5 600.5,188.5C 600.5,197.5 600.5,206.5 600.5,215.5C 596.167,215.5 591.833,215.5 587.5,215.5C 587.167,215.5 586.833,215.5 586.5,215.5C 582.167,215.5 577.833,215.5 573.5,215.5C 573.5,215.167 573.5,214.833 573.5,214.5C 577.833,214.5 582.167,214.5 586.5,214.5C 586.5,205.5 586.5,196.5 586.5,187.5C 590.833,187.5 595.167,187.5 599.5,187.5C 599.182,182.968 599.515,178.634 600.5,174.5 Z"/></g>
<g><path style="opacity:1" fill="#767676" d="M 707.5,120.5 C 708.497,142.994 708.831,165.661 708.5,188.5C 708.167,188.5 707.833,188.5 707.5,188.5C 684.994,188.831 662.66,188.497 640.5,187.5C 640.833,187.5 641.167,187.5 641.5,187.5C 663.5,187.5 685.5,187.5 707.5,187.5C 707.5,165.5 707.5,143.5 707.5,121.5C 707.5,121.167 707.5,120.833 707.5,120.5 Z"/></g>
<g><path style="opacity:1" fill="#090909" d="M 438.5,188.5 C 442.833,188.5 447.167,188.5 451.5,188.5C 451.5,192.833 451.5,197.167 451.5,201.5C 451.5,197.167 451.5,192.833 451.5,188.5C 447.167,188.5 442.833,188.5 438.5,188.5 Z"/></g>
<g><path style="opacity:1" fill="#080808" d="M 465.5,188.5 C 469.833,188.5 474.167,188.5 478.5,188.5C 478.5,192.833 478.5,197.167 478.5,201.5C 478.5,197.167 478.5,192.833 478.5,188.5C 474.167,188.5 469.833,188.5 465.5,188.5 Z"/></g>
<g><path style="opacity:1" fill="#7d7d7d" d="M 479.5,174.5 C 479.5,178.833 479.5,183.167 479.5,187.5C 483.833,187.5 488.167,187.5 492.5,187.5C 497.167,187.5 501.833,187.5 506.5,187.5C 506.5,192.167 506.5,196.833 506.5,201.5C 505.515,197.366 505.182,193.032 505.5,188.5C 501.167,188.5 496.833,188.5 492.5,188.5C 488.167,188.5 483.833,188.5 479.5,188.5C 479.5,192.833 479.5,197.167 479.5,201.5C 479.5,206.167 479.5,210.833 479.5,215.5C 475.167,215.5 470.833,215.5 466.5,215.5C 466.167,215.5 465.833,215.5 465.5,215.5C 469.634,214.515 473.968,214.182 478.5,214.5C 478.5,210.167 478.5,205.833 478.5,201.5C 478.5,197.167 478.5,192.833 478.5,188.5C 474.167,188.5 469.833,188.5 465.5,188.5C 469.634,187.515 473.968,187.182 478.5,187.5C 478.182,182.968 478.515,178.634 479.5,174.5 Z"/></g>
<g><path style="opacity:1" fill="#f8f8f8" d="M 492.5,188.5 C 492.5,192.833 492.5,197.167 492.5,201.5C 488.167,201.5 483.833,201.5 479.5,201.5C 479.5,197.167 479.5,192.833 479.5,188.5C 483.833,188.5 488.167,188.5 492.5,188.5 Z"/></g>
<g><path style="opacity:1" fill="#191919" d="M 533.5,201.5 C 533.827,210.682 533.493,219.682 532.5,228.5C 532.5,219.5 532.5,210.5 532.5,201.5C 528.167,201.5 523.833,201.5 519.5,201.5C 519.5,197.167 519.5,192.833 519.5,188.5C 524.167,188.5 528.833,188.5 533.5,188.5C 533.5,192.833 533.5,197.167 533.5,201.5 Z"/></g>
<g><path style="opacity:1" fill="#040404" d="M 559.5,188.5 C 559.5,192.833 559.5,197.167 559.5,201.5C 555.167,201.5 550.833,201.5 546.5,201.5C 546.5,197.167 546.5,192.833 546.5,188.5C 550.833,188.5 555.167,188.5 559.5,188.5 Z"/></g>
<g><path style="opacity:1" fill="#fefefe" d="M 587.5,188.5 C 591.5,188.5 595.5,188.5 599.5,188.5C 599.5,197.167 599.5,205.833 599.5,214.5C 595.5,214.5 591.5,214.5 587.5,214.5C 587.5,205.833 587.5,197.167 587.5,188.5 Z"/></g>
<g><path style="opacity:1" fill="#757575" d="M 438.5,188.5 C 442.97,187.514 447.637,187.181 452.5,187.5C 452.819,192.363 452.486,197.03 451.5,201.5C 451.5,197.167 451.5,192.833 451.5,188.5C 447.167,188.5 442.833,188.5 438.5,188.5 Z"/></g>
<g><path style="opacity:1" fill="#a5a5a5" d="M 559.5,188.5 C 555.167,188.5 550.833,188.5 546.5,188.5C 546.5,192.833 546.5,197.167 546.5,201.5C 546.167,201.5 545.833,201.5 545.5,201.5C 545.5,196.833 545.5,192.167 545.5,187.5C 550.363,187.181 555.03,187.514 559.5,188.5 Z"/></g>
<g><path style="opacity:1" fill="#373737" d="M 424.5,107.5 C 425.498,138.662 425.832,169.996 425.5,201.5C 394.167,201.5 362.833,201.5 331.5,201.5C 331.5,201.167 331.5,200.833 331.5,200.5C 349.167,200.5 366.833,200.5 384.5,200.5C 384.5,196.5 384.5,192.5 384.5,188.5C 384.833,188.5 385.167,188.5 385.5,188.5C 385.5,192.5 385.5,196.5 385.5,200.5C 398.5,200.5 411.5,200.5 424.5,200.5C 424.5,169.5 424.5,138.5 424.5,107.5 Z"/></g>
<g><path style="opacity:1" fill="#333333" d="M 720.5,107.5 C 720.833,107.5 721.167,107.5 721.5,107.5C 721.5,138.833 721.5,170.167 721.5,201.5C 690.167,201.5 658.833,201.5 627.5,201.5C 627.5,201.167 627.5,200.833 627.5,200.5C 654.167,200.5 680.833,200.5 707.5,200.5C 707.5,196.5 707.5,192.5 707.5,188.5C 707.833,188.5 708.167,188.5 708.5,188.5C 708.5,192.5 708.5,196.5 708.5,200.5C 712.5,200.5 716.5,200.5 720.5,200.5C 720.5,169.5 720.5,138.5 720.5,107.5 Z"/></g>
<g><path style="opacity:1" fill="#040404" d="M 492.5,188.5 C 496.833,188.5 501.167,188.5 505.5,188.5C 505.182,193.032 505.515,197.366 506.5,201.5C 510.833,201.5 515.167,201.5 519.5,201.5C 519.5,205.833 519.5,210.167 519.5,214.5C 510.5,214.5 501.5,214.5 492.5,214.5C 491.515,218.634 491.182,222.968 491.5,227.5C 483.167,227.5 474.833,227.5 466.5,227.5C 466.5,223.5 466.5,219.5 466.5,215.5C 470.833,215.5 475.167,215.5 479.5,215.5C 479.5,210.833 479.5,206.167 479.5,201.5C 483.833,201.5 488.167,201.5 492.5,201.5C 492.5,197.167 492.5,192.833 492.5,188.5 Z"/></g>
<g><path style="opacity:1" fill="#fdfdfd" d="M 519.5,201.5 C 523.833,201.5 528.167,201.5 532.5,201.5C 532.5,210.5 532.5,219.5 532.5,228.5C 528.167,228.5 523.833,228.5 519.5,228.5C 519.5,232.833 519.5,237.167 519.5,241.5C 537.326,242.497 555.326,242.83 573.5,242.5C 573.5,233.5 573.5,224.5 573.5,215.5C 577.833,215.5 582.167,215.5 586.5,215.5C 586.5,219.833 586.5,224.167 586.5,228.5C 599.833,228.5 613.167,228.5 626.5,228.5C 626.5,232.833 626.5,237.167 626.5,241.5C 622.167,241.5 617.833,241.5 613.5,241.5C 613.5,246.167 613.5,250.833 613.5,255.5C 609.167,255.5 604.833,255.5 600.5,255.5C 600.5,250.833 600.5,246.167 600.5,241.5C 595.833,241.5 591.167,241.5 586.5,241.5C 586.5,250.5 586.5,259.5 586.5,268.5C 582.167,268.5 577.833,268.5 573.5,268.5C 573.5,263.833 573.5,259.167 573.5,254.5C 546.5,254.5 519.5,254.5 492.5,254.5C 492.5,250.5 492.5,246.5 492.5,242.5C 497.167,242.5 501.833,242.5 506.5,242.5C 506.5,237.833 506.5,233.167 506.5,228.5C 502.366,227.515 498.032,227.182 493.5,227.5C 493.5,223.5 493.5,219.5 493.5,215.5C 502.349,215.826 511.016,215.493 519.5,214.5C 519.5,210.167 519.5,205.833 519.5,201.5 Z"/></g>
<g><path style="opacity:1" fill="#787878" d="M 438.5,215.5 C 425.167,215.5 411.833,215.5 398.5,215.5C 398.5,219.833 398.5,224.167 398.5,228.5C 397.514,224.03 397.181,219.363 397.5,214.5C 411.344,214.171 425.01,214.504 438.5,215.5 Z"/></g>
<g><path style="opacity:1" fill="#7a7a7a" d="M 573.5,174.5 C 573.5,187.833 573.5,201.167 573.5,214.5C 573.5,214.833 573.5,215.167 573.5,215.5C 573.5,224.5 573.5,233.5 573.5,242.5C 555.326,242.83 537.326,242.497 519.5,241.5C 537.167,241.5 554.833,241.5 572.5,241.5C 572.5,232.833 572.5,224.167 572.5,215.5C 563.5,215.5 554.5,215.5 545.5,215.5C 545.5,210.833 545.5,206.167 545.5,201.5C 545.833,201.5 546.167,201.5 546.5,201.5C 546.5,205.833 546.5,210.167 546.5,214.5C 555.167,214.5 563.833,214.5 572.5,214.5C 572.171,200.99 572.504,187.656 573.5,174.5 Z"/></g>
<g><path style="opacity:1" fill="#6b6b6b" d="M 707.5,214.5 C 707.5,214.833 707.5,215.167 707.5,215.5C 698.833,215.5 690.167,215.5 681.5,215.5C 681.818,220.032 681.485,224.366 680.5,228.5C 680.5,223.833 680.5,219.167 680.5,214.5C 689.5,214.5 698.5,214.5 707.5,214.5 Z"/></g>
<g><path style="opacity:1" fill="#070707" d="M 438.5,215.5 C 438.5,219.833 438.5,224.167 438.5,228.5C 425.167,228.5 411.833,228.5 398.5,228.5C 398.5,224.167 398.5,219.833 398.5,215.5C 411.833,215.5 425.167,215.5 438.5,215.5 Z"/></g>
<g><path style="opacity:1" fill="#020202" d="M 533.5,201.5 C 537.5,201.5 541.5,201.5 545.5,201.5C 545.5,206.167 545.5,210.833 545.5,215.5C 554.5,215.5 563.5,215.5 572.5,215.5C 572.5,224.167 572.5,232.833 572.5,241.5C 554.833,241.5 537.167,241.5 519.5,241.5C 519.5,237.167 519.5,232.833 519.5,228.5C 523.833,228.5 528.167,228.5 532.5,228.5C 533.493,219.682 533.827,210.682 533.5,201.5 Z"/></g>
<g><path style="opacity:1" fill="#020202" d="M 613.5,188.5 C 613.5,197.167 613.5,205.833 613.5,214.5C 617.634,215.485 621.968,215.818 626.5,215.5C 626.5,219.5 626.5,223.5 626.5,227.5C 613.5,227.5 600.5,227.5 587.5,227.5C 587.5,223.5 587.5,219.5 587.5,215.5C 591.833,215.5 596.167,215.5 600.5,215.5C 600.5,206.5 600.5,197.5 600.5,188.5C 604.833,188.5 609.167,188.5 613.5,188.5 Z"/></g>
<g><path style="opacity:1" fill="#959595" d="M 371.5,215.5 C 371.5,215.167 371.5,214.833 371.5,214.5C 376.167,214.5 380.833,214.5 385.5,214.5C 385.829,228.344 385.496,242.01 384.5,255.5C 384.5,255.167 384.5,254.833 384.5,254.5C 384.5,241.5 384.5,228.5 384.5,215.5C 380.167,215.5 375.833,215.5 371.5,215.5 Z"/></g>
<g><path style="opacity:1" fill="#787878" d="M 613.5,214.5 C 618.167,214.5 622.833,214.5 627.5,214.5C 627.5,219.167 627.5,223.833 627.5,228.5C 627.818,233.032 627.485,237.366 626.5,241.5C 626.5,237.167 626.5,232.833 626.5,228.5C 626.5,228.167 626.5,227.833 626.5,227.5C 626.5,223.5 626.5,219.5 626.5,215.5C 621.968,215.818 617.634,215.485 613.5,214.5 Z"/></g>
<g><path style="opacity:1" fill="#c6c6c6" d="M 371.5,214.5 C 371.5,214.833 371.5,215.167 371.5,215.5C 371.5,219.833 371.5,224.167 371.5,228.5C 362.5,228.5 353.5,228.5 344.5,228.5C 352.984,227.507 361.651,227.174 370.5,227.5C 370.182,222.968 370.515,218.634 371.5,214.5 Z"/></g>
<g><path style="opacity:1" fill="#313131" d="M 492.5,214.5 C 492.5,219.167 492.5,223.833 492.5,228.5C 483.5,228.5 474.5,228.5 465.5,228.5C 465.5,224.167 465.5,219.833 465.5,215.5C 465.833,215.5 466.167,215.5 466.5,215.5C 466.5,219.5 466.5,223.5 466.5,227.5C 474.833,227.5 483.167,227.5 491.5,227.5C 491.182,222.968 491.515,218.634 492.5,214.5 Z"/></g>
<g><path style="opacity:1" fill="#bababa" d="M 492.5,214.5 C 501.5,214.5 510.5,214.5 519.5,214.5C 511.016,215.493 502.349,215.826 493.5,215.5C 493.5,219.5 493.5,223.5 493.5,227.5C 498.032,227.182 502.366,227.515 506.5,228.5C 506.167,228.5 505.833,228.5 505.5,228.5C 501.167,228.5 496.833,228.5 492.5,228.5C 492.5,223.833 492.5,219.167 492.5,214.5 Z"/></g>
<g><path style="opacity:1" fill="#393939" d="M 586.5,215.5 C 586.833,215.5 587.167,215.5 587.5,215.5C 587.5,219.5 587.5,223.5 587.5,227.5C 600.5,227.5 613.5,227.5 626.5,227.5C 626.5,227.833 626.5,228.167 626.5,228.5C 613.167,228.5 599.833,228.5 586.5,228.5C 586.5,224.167 586.5,219.833 586.5,215.5 Z"/></g>
<g><path style="opacity:1" fill="#bababa" d="M 707.5,214.5 C 708.485,218.634 708.818,222.968 708.5,227.5C 713.032,227.182 717.366,227.515 721.5,228.5C 721.167,228.5 720.833,228.5 720.5,228.5C 716.167,228.5 711.833,228.5 707.5,228.5C 707.5,224.167 707.5,219.833 707.5,215.5C 707.5,215.167 707.5,214.833 707.5,214.5 Z"/></g>
<g><path style="opacity:1" fill="#020202" d="M 707.5,215.5 C 707.5,219.833 707.5,224.167 707.5,228.5C 711.833,228.5 716.167,228.5 720.5,228.5C 720.5,232.833 720.5,237.167 720.5,241.5C 716.167,241.5 711.833,241.5 707.5,241.5C 707.5,245.833 707.5,250.167 707.5,254.5C 703.167,254.5 698.833,254.5 694.5,254.5C 694.5,250.167 694.5,245.833 694.5,241.5C 689.833,241.5 685.167,241.5 680.5,241.5C 680.5,250.5 680.5,259.5 680.5,268.5C 676.167,268.5 671.833,268.5 667.5,268.5C 667.5,259.833 667.5,251.167 667.5,242.5C 663.03,241.514 658.363,241.181 653.5,241.5C 653.5,254.833 653.5,268.167 653.5,281.5C 649.167,281.5 644.833,281.5 640.5,281.5C 636.167,281.5 631.833,281.5 627.5,281.5C 627.5,277.5 627.5,273.5 627.5,269.5C 632.032,269.818 636.366,269.485 640.5,268.5C 640.5,264.167 640.5,259.833 640.5,255.5C 632.016,254.507 623.349,254.174 614.5,254.5C 614.5,250.5 614.5,246.5 614.5,242.5C 618.702,242.817 622.702,242.483 626.5,241.5C 627.485,237.366 627.818,233.032 627.5,228.5C 645.167,228.5 662.833,228.5 680.5,228.5C 681.485,224.366 681.818,220.032 681.5,215.5C 690.167,215.5 698.833,215.5 707.5,215.5 Z"/></g>
<g><path style="opacity:1" fill="#040404" d="M 492.5,228.5 C 496.833,228.5 501.167,228.5 505.5,228.5C 505.5,232.833 505.5,237.167 505.5,241.5C 501.167,241.5 496.833,241.5 492.5,241.5C 492.5,237.167 492.5,232.833 492.5,228.5 Z"/></g>
<g><path style="opacity:1" fill="#6c6c6c" d="M 505.5,228.5 C 505.833,228.5 506.167,228.5 506.5,228.5C 506.5,233.167 506.5,237.833 506.5,242.5C 501.833,242.5 497.167,242.5 492.5,242.5C 479.167,242.5 465.833,242.5 452.5,242.5C 452.5,246.5 452.5,250.5 452.5,254.5C 465.833,254.5 479.167,254.5 492.5,254.5C 492.5,254.833 492.5,255.167 492.5,255.5C 478.833,255.5 465.167,255.5 451.5,255.5C 451.5,250.833 451.5,246.167 451.5,241.5C 465.167,241.5 478.833,241.5 492.5,241.5C 496.833,241.5 501.167,241.5 505.5,241.5C 505.5,237.167 505.5,232.833 505.5,228.5 Z"/></g>
<g><path style="opacity:1" fill="#020202" d="M 371.5,215.5 C 375.833,215.5 380.167,215.5 384.5,215.5C 384.5,228.5 384.5,241.5 384.5,254.5C 375.833,254.5 367.167,254.5 358.5,254.5C 358.5,250.167 358.5,245.833 358.5,241.5C 353.833,241.5 349.167,241.5 344.5,241.5C 344.5,237.167 344.5,232.833 344.5,228.5C 353.5,228.5 362.5,228.5 371.5,228.5C 371.5,224.167 371.5,219.833 371.5,215.5 Z"/></g>
<g><path style="opacity:1" fill="#020202" d="M 492.5,242.5 C 492.5,246.5 492.5,250.5 492.5,254.5C 479.167,254.5 465.833,254.5 452.5,254.5C 452.5,250.5 452.5,246.5 452.5,242.5C 465.833,242.5 479.167,242.5 492.5,242.5 Z"/></g>
<g><path style="opacity:1" fill="#5e5e5e" d="M 600.5,255.5 C 599.515,251.366 599.182,247.032 599.5,242.5C 595.5,242.5 591.5,242.5 587.5,242.5C 587.5,251.167 587.5,259.833 587.5,268.5C 587.167,268.5 586.833,268.5 586.5,268.5C 586.5,259.5 586.5,250.5 586.5,241.5C 591.167,241.5 595.833,241.5 600.5,241.5C 600.5,246.167 600.5,250.833 600.5,255.5 Z"/></g>
<g><path style="opacity:1" fill="#797979" d="M 667.5,242.5 C 663.167,242.5 658.833,242.5 654.5,242.5C 654.5,255.833 654.5,269.167 654.5,282.5C 649.833,282.5 645.167,282.5 640.5,282.5C 640.5,282.167 640.5,281.833 640.5,281.5C 644.833,281.5 649.167,281.5 653.5,281.5C 653.5,268.167 653.5,254.833 653.5,241.5C 658.363,241.181 663.03,241.514 667.5,242.5 Z"/></g>
<g><path style="opacity:1" fill="#8f8f8f" d="M 720.5,228.5 C 720.833,228.5 721.167,228.5 721.5,228.5C 721.5,233.167 721.5,237.833 721.5,242.5C 717.167,242.5 712.833,242.5 708.5,242.5C 708.5,246.833 708.5,251.167 708.5,255.5C 703.5,255.5 698.5,255.5 693.5,255.5C 693.5,251.167 693.5,246.833 693.5,242.5C 689.5,242.5 685.5,242.5 681.5,242.5C 681.826,251.349 681.493,260.016 680.5,268.5C 680.5,259.5 680.5,250.5 680.5,241.5C 685.167,241.5 689.833,241.5 694.5,241.5C 694.5,245.833 694.5,250.167 694.5,254.5C 698.833,254.5 703.167,254.5 707.5,254.5C 707.5,250.167 707.5,245.833 707.5,241.5C 711.833,241.5 716.167,241.5 720.5,241.5C 720.5,237.167 720.5,232.833 720.5,228.5 Z"/></g>
<g><path style="opacity:1" fill="#494949" d="M 626.5,241.5 C 622.702,242.483 618.702,242.817 614.5,242.5C 614.5,246.5 614.5,250.5 614.5,254.5C 623.349,254.174 632.016,254.507 640.5,255.5C 631.5,255.5 622.5,255.5 613.5,255.5C 613.5,250.833 613.5,246.167 613.5,241.5C 617.833,241.5 622.167,241.5 626.5,241.5 Z"/></g>
<g><path style="opacity:1" fill="#030303" d="M 344.5,255.5 C 348.833,255.5 353.167,255.5 357.5,255.5C 357.5,264.167 357.5,272.833 357.5,281.5C 352.968,281.182 348.634,281.515 344.5,282.5C 344.5,286.833 344.5,291.167 344.5,295.5C 340.167,295.5 335.833,295.5 331.5,295.5C 331.5,286.833 331.5,278.167 331.5,269.5C 336.032,269.818 340.366,269.485 344.5,268.5C 344.5,264.167 344.5,259.833 344.5,255.5 Z"/></g>
<g><path style="opacity:1" fill="#787878" d="M 344.5,241.5 C 349.167,241.5 353.833,241.5 358.5,241.5C 358.5,245.833 358.5,250.167 358.5,254.5C 367.167,254.5 375.833,254.5 384.5,254.5C 384.5,254.833 384.5,255.167 384.5,255.5C 375.833,255.5 367.167,255.5 358.5,255.5C 358.5,264.5 358.5,273.5 358.5,282.5C 353.833,282.5 349.167,282.5 344.5,282.5C 348.634,281.515 352.968,281.182 357.5,281.5C 357.5,272.833 357.5,264.167 357.5,255.5C 353.167,255.5 348.833,255.5 344.5,255.5C 348.634,254.515 352.968,254.182 357.5,254.5C 357.5,250.5 357.5,246.5 357.5,242.5C 352.968,242.818 348.634,242.485 344.5,241.5 Z"/></g>
<g><path style="opacity:1" fill="#010101" d="M 438.5,242.5 C 438.5,251.167 438.5,259.833 438.5,268.5C 434.167,268.5 429.833,268.5 425.5,268.5C 425.5,263.833 425.5,259.167 425.5,254.5C 416.5,254.5 407.5,254.5 398.5,254.5C 398.5,250.5 398.5,246.5 398.5,242.5C 411.833,242.5 425.167,242.5 438.5,242.5 Z"/></g>
<g><path style="opacity:1" fill="#010101" d="M 492.5,255.5 C 519.167,255.5 545.833,255.5 572.5,255.5C 572.5,259.833 572.5,264.167 572.5,268.5C 568.167,268.5 563.833,268.5 559.5,268.5C 559.5,272.833 559.5,277.167 559.5,281.5C 555.167,281.5 550.833,281.5 546.5,281.5C 546.5,277.167 546.5,272.833 546.5,268.5C 541.833,268.5 537.167,268.5 532.5,268.5C 532.5,272.833 532.5,277.167 532.5,281.5C 528.167,281.5 523.833,281.5 519.5,281.5C 519.5,277.167 519.5,272.833 519.5,268.5C 510.5,268.5 501.5,268.5 492.5,268.5C 492.5,264.167 492.5,259.833 492.5,255.5 Z"/></g>
<g><path style="opacity:1" fill="#010101" d="M 600.5,255.5 C 604.833,255.5 609.167,255.5 613.5,255.5C 613.5,259.833 613.5,264.167 613.5,268.5C 617.634,269.485 621.968,269.818 626.5,269.5C 626.5,273.5 626.5,277.5 626.5,281.5C 622.167,281.5 617.833,281.5 613.5,281.5C 609.167,281.5 604.833,281.5 600.5,281.5C 600.5,277.167 600.5,272.833 600.5,268.5C 596.167,268.5 591.833,268.5 587.5,268.5C 587.5,259.833 587.5,251.167 587.5,242.5C 591.5,242.5 595.5,242.5 599.5,242.5C 599.182,247.032 599.515,251.366 600.5,255.5 Z"/></g>
<g><path style="opacity:1" fill="#fafafa" d="M 613.5,255.5 C 622.5,255.5 631.5,255.5 640.5,255.5C 640.5,259.833 640.5,264.167 640.5,268.5C 631.5,268.5 622.5,268.5 613.5,268.5C 613.5,264.167 613.5,259.833 613.5,255.5 Z"/></g>
<g><path style="opacity:1" fill="#939393" d="M 492.5,255.5 C 492.5,255.167 492.5,254.833 492.5,254.5C 519.5,254.5 546.5,254.5 573.5,254.5C 573.5,259.167 573.5,263.833 573.5,268.5C 577.833,268.5 582.167,268.5 586.5,268.5C 586.833,268.5 587.167,268.5 587.5,268.5C 591.833,268.5 596.167,268.5 600.5,268.5C 600.5,272.833 600.5,277.167 600.5,281.5C 600.5,281.833 600.5,282.167 600.5,282.5C 600.167,282.5 599.833,282.5 599.5,282.5C 595.5,282.5 591.5,282.5 587.5,282.5C 587.167,282.5 586.833,282.5 586.5,282.5C 581.833,282.5 577.167,282.5 572.5,282.5C 572.5,278.167 572.5,273.833 572.5,269.5C 568.5,269.5 564.5,269.5 560.5,269.5C 560.5,273.833 560.5,278.167 560.5,282.5C 555.833,282.5 551.167,282.5 546.5,282.5C 542.167,282.5 537.833,282.5 533.5,282.5C 533.167,282.5 532.833,282.5 532.5,282.5C 527.833,282.5 523.167,282.5 518.5,282.5C 518.5,278.167 518.5,273.833 518.5,269.5C 509.833,269.5 501.167,269.5 492.5,269.5C 492.5,269.167 492.5,268.833 492.5,268.5C 501.5,268.5 510.5,268.5 519.5,268.5C 519.5,272.833 519.5,277.167 519.5,281.5C 523.833,281.5 528.167,281.5 532.5,281.5C 532.5,277.167 532.5,272.833 532.5,268.5C 537.167,268.5 541.833,268.5 546.5,268.5C 546.5,272.833 546.5,277.167 546.5,281.5C 550.833,281.5 555.167,281.5 559.5,281.5C 559.5,277.167 559.5,272.833 559.5,268.5C 563.833,268.5 568.167,268.5 572.5,268.5C 572.5,264.167 572.5,259.833 572.5,255.5C 545.833,255.5 519.167,255.5 492.5,255.5 Z"/></g>
<g><path style="opacity:1" fill="#797979" d="M 344.5,268.5 C 340.366,269.485 336.032,269.818 331.5,269.5C 331.5,278.167 331.5,286.833 331.5,295.5C 330.507,286.682 330.173,277.682 330.5,268.5C 335.167,268.5 339.833,268.5 344.5,268.5 Z"/></g>
<g><path style="opacity:1" fill="#030303" d="M 492.5,269.5 C 492.5,273.5 492.5,277.5 492.5,281.5C 483.833,281.5 475.167,281.5 466.5,281.5C 466.5,277.5 466.5,273.5 466.5,269.5C 475.167,269.5 483.833,269.5 492.5,269.5 Z"/></g>
<g><path style="opacity:1" fill="#fdfdfd" d="M 533.5,269.5 C 537.5,269.5 541.5,269.5 545.5,269.5C 545.5,273.5 545.5,277.5 545.5,281.5C 541.5,281.5 537.5,281.5 533.5,281.5C 533.5,277.5 533.5,273.5 533.5,269.5 Z"/></g>
<g><path style="opacity:1" fill="#fdfdfd" d="M 586.5,282.5 C 586.5,286.833 586.5,291.167 586.5,295.5C 582.167,295.5 577.833,295.5 573.5,295.5C 572.514,299.97 572.181,304.637 572.5,309.5C 577.167,309.5 581.833,309.5 586.5,309.5C 586.5,313.833 586.5,318.167 586.5,322.5C 573.167,322.5 559.833,322.5 546.5,322.5C 546.5,309.167 546.5,295.833 546.5,282.5C 551.167,282.5 555.833,282.5 560.5,282.5C 560.5,278.167 560.5,273.833 560.5,269.5C 564.5,269.5 568.5,269.5 572.5,269.5C 572.5,273.833 572.5,278.167 572.5,282.5C 577.167,282.5 581.833,282.5 586.5,282.5 Z"/></g>
<g><path style="opacity:1" fill="#000000" d="M 573.5,269.5 C 577.833,269.5 582.167,269.5 586.5,269.5C 586.5,273.5 586.5,277.5 586.5,281.5C 582.167,281.5 577.833,281.5 573.5,281.5C 573.5,277.5 573.5,273.5 573.5,269.5 Z"/></g>
<g><path style="opacity:1" fill="#fdfdfd" d="M 587.5,269.5 C 591.5,269.5 595.5,269.5 599.5,269.5C 599.5,273.5 599.5,277.5 599.5,281.5C 595.5,281.5 591.5,281.5 587.5,281.5C 587.5,277.5 587.5,273.5 587.5,269.5 Z"/></g>
<g><path style="opacity:1" fill="#010101" d="M 694.5,269.5 C 698.833,269.5 703.167,269.5 707.5,269.5C 707.5,273.5 707.5,277.5 707.5,281.5C 703.167,281.5 698.833,281.5 694.5,281.5C 694.5,277.5 694.5,273.5 694.5,269.5 Z"/></g>
<g><path style="opacity:1" fill="#606060" d="M 438.5,242.5 C 425.167,242.5 411.833,242.5 398.5,242.5C 398.5,246.5 398.5,250.5 398.5,254.5C 407.5,254.5 416.5,254.5 425.5,254.5C 425.5,259.167 425.5,263.833 425.5,268.5C 429.833,268.5 434.167,268.5 438.5,268.5C 434.366,269.485 430.032,269.818 425.5,269.5C 425.5,273.833 425.5,278.167 425.5,282.5C 411.833,282.5 398.167,282.5 384.5,282.5C 384.5,277.833 384.5,273.167 384.5,268.5C 397.833,268.5 411.167,268.5 424.5,268.5C 424.5,264.167 424.5,259.833 424.5,255.5C 415.5,255.5 406.5,255.5 397.5,255.5C 397.5,250.833 397.5,246.167 397.5,241.5C 411.344,241.171 425.01,241.504 438.5,242.5 Z"/></g>
<g><path style="opacity:1" fill="#010101" d="M 385.5,269.5 C 398.5,269.5 411.5,269.5 424.5,269.5C 424.5,273.5 424.5,277.5 424.5,281.5C 411.5,281.5 398.5,281.5 385.5,281.5C 385.5,277.5 385.5,273.5 385.5,269.5 Z"/></g>
<g><path style="opacity:1" fill="#515151" d="M 492.5,268.5 C 492.5,268.833 492.5,269.167 492.5,269.5C 483.833,269.5 475.167,269.5 466.5,269.5C 466.5,273.5 466.5,277.5 466.5,281.5C 475.167,281.5 483.833,281.5 492.5,281.5C 483.682,282.493 474.682,282.827 465.5,282.5C 465.5,277.833 465.5,273.167 465.5,268.5C 474.5,268.5 483.5,268.5 492.5,268.5 Z"/></g>
<g><path style="opacity:1" fill="#3b3b3b" d="M 613.5,268.5 C 622.5,268.5 631.5,268.5 640.5,268.5C 636.366,269.485 632.032,269.818 627.5,269.5C 627.5,273.5 627.5,277.5 627.5,281.5C 631.833,281.5 636.167,281.5 640.5,281.5C 640.5,281.833 640.5,282.167 640.5,282.5C 640.5,286.833 640.5,291.167 640.5,295.5C 639.515,291.366 639.182,287.032 639.5,282.5C 635.5,282.5 631.5,282.5 627.5,282.5C 627.5,287.167 627.5,291.833 627.5,296.5C 622.833,296.5 618.167,296.5 613.5,296.5C 613.5,296.167 613.5,295.833 613.5,295.5C 617.833,295.5 622.167,295.5 626.5,295.5C 626.5,291.167 626.5,286.833 626.5,282.5C 622.167,282.5 617.833,282.5 613.5,282.5C 613.5,282.167 613.5,281.833 613.5,281.5C 617.833,281.5 622.167,281.5 626.5,281.5C 626.5,277.5 626.5,273.5 626.5,269.5C 621.968,269.818 617.634,269.485 613.5,268.5 Z"/></g>
<g><path style="opacity:1" fill="#666666" d="M 452.5,295.5 C 451.515,291.366 451.182,287.032 451.5,282.5C 447.5,282.5 443.5,282.5 439.5,282.5C 439.5,291.167 439.5,299.833 439.5,308.5C 443.833,308.5 448.167,308.5 452.5,308.5C 452.5,322.167 452.5,335.833 452.5,349.5C 451.504,336.344 451.171,323.01 451.5,309.5C 447.167,309.5 442.833,309.5 438.5,309.5C 438.5,300.167 438.5,290.833 438.5,281.5C 443.167,281.5 447.833,281.5 452.5,281.5C 452.5,286.167 452.5,290.833 452.5,295.5 Z"/></g>
<g><path style="opacity:1" fill="#fafafa" d="M 613.5,282.5 C 617.833,282.5 622.167,282.5 626.5,282.5C 626.5,286.833 626.5,291.167 626.5,295.5C 622.167,295.5 617.833,295.5 613.5,295.5C 613.5,291.167 613.5,286.833 613.5,282.5 Z"/></g>
<g><path style="opacity:1" fill="#020202" d="M 680.5,282.5 C 680.5,286.833 680.5,291.167 680.5,295.5C 676.167,295.5 671.833,295.5 667.5,295.5C 667.5,291.167 667.5,286.833 667.5,282.5C 671.833,282.5 676.167,282.5 680.5,282.5 Z"/></g>
<g><path style="opacity:1" fill="#767676" d="M 694.5,269.5 C 698.97,268.514 703.637,268.181 708.5,268.5C 708.5,272.833 708.5,277.167 708.5,281.5C 713.032,281.182 717.366,281.515 721.5,282.5C 721.167,282.5 720.833,282.5 720.5,282.5C 716.5,282.5 712.5,282.5 708.5,282.5C 708.5,286.833 708.5,291.167 708.5,295.5C 708.167,295.5 707.833,295.5 707.5,295.5C 707.5,291.167 707.5,286.833 707.5,282.5C 702.968,282.818 698.634,282.485 694.5,281.5C 698.833,281.5 703.167,281.5 707.5,281.5C 707.5,277.5 707.5,273.5 707.5,269.5C 703.167,269.5 698.833,269.5 694.5,269.5 Z"/></g>
<g><path style="opacity:1" fill="#4c4c4c" d="M 344.5,296.5 C 344.5,296.167 344.5,295.833 344.5,295.5C 362.5,295.5 380.5,295.5 398.5,295.5C 398.5,300.167 398.5,304.833 398.5,309.5C 393.833,309.5 389.167,309.5 384.5,309.5C 388.634,308.515 392.968,308.182 397.5,308.5C 397.5,304.5 397.5,300.5 397.5,296.5C 379.833,296.5 362.167,296.5 344.5,296.5 Z"/></g>
<g><path style="opacity:1" fill="#444444" d="M 452.5,295.5 C 474.833,295.5 497.167,295.5 519.5,295.5C 519.5,299.833 519.5,304.167 519.5,308.5C 519.167,308.5 518.833,308.5 518.5,308.5C 518.5,304.5 518.5,300.5 518.5,296.5C 496.327,296.831 474.327,296.497 452.5,295.5 Z"/></g>
<g><path style="opacity:1" fill="#020202" d="M 452.5,295.5 C 474.327,296.497 496.327,296.831 518.5,296.5C 518.5,300.5 518.5,304.5 518.5,308.5C 505.323,308.171 492.323,308.505 479.5,309.5C 478.515,313.634 478.182,317.968 478.5,322.5C 474.167,322.5 469.833,322.5 465.5,322.5C 465.5,326.833 465.5,331.167 465.5,335.5C 469.634,336.485 473.968,336.818 478.5,336.5C 478.5,340.833 478.5,345.167 478.5,349.5C 469.833,349.5 461.167,349.5 452.5,349.5C 452.5,335.833 452.5,322.167 452.5,308.5C 448.167,308.5 443.833,308.5 439.5,308.5C 439.5,299.833 439.5,291.167 439.5,282.5C 443.5,282.5 447.5,282.5 451.5,282.5C 451.182,287.032 451.515,291.366 452.5,295.5 Z"/></g>
<g><path style="opacity:1" fill="#000000" d="M 573.5,296.5 C 577.833,296.5 582.167,296.5 586.5,296.5C 586.5,300.5 586.5,304.5 586.5,308.5C 582.167,308.5 577.833,308.5 573.5,308.5C 573.5,304.5 573.5,300.5 573.5,296.5 Z"/></g>
<g><path style="opacity:1" fill="#1f1f1f" d="M 600.5,281.5 C 604.833,281.5 609.167,281.5 613.5,281.5C 613.5,281.833 613.5,282.167 613.5,282.5C 613.5,286.833 613.5,291.167 613.5,295.5C 613.5,295.833 613.5,296.167 613.5,296.5C 609.167,296.5 604.833,296.5 600.5,296.5C 600.5,300.5 600.5,304.5 600.5,308.5C 605.032,308.182 609.366,308.515 613.5,309.5C 609.167,309.5 604.833,309.5 600.5,309.5C 600.167,309.5 599.833,309.5 599.5,309.5C 595.5,309.5 591.5,309.5 587.5,309.5C 587.818,314.032 587.485,318.366 586.5,322.5C 586.5,318.167 586.5,313.833 586.5,309.5C 586.5,309.167 586.5,308.833 586.5,308.5C 586.5,304.5 586.5,300.5 586.5,296.5C 582.167,296.5 577.833,296.5 573.5,296.5C 573.5,296.167 573.5,295.833 573.5,295.5C 577.833,295.5 582.167,295.5 586.5,295.5C 586.5,291.167 586.5,286.833 586.5,282.5C 586.833,282.5 587.167,282.5 587.5,282.5C 587.5,286.833 587.5,291.167 587.5,295.5C 591.5,295.5 595.5,295.5 599.5,295.5C 599.5,291.167 599.5,286.833 599.5,282.5C 599.833,282.5 600.167,282.5 600.5,282.5C 600.5,282.167 600.5,281.833 600.5,281.5 Z"/></g>
<g><path style="opacity:1" fill="#000000" d="M 587.5,296.5 C 591.5,296.5 595.5,296.5 599.5,296.5C 599.5,300.5 599.5,304.5 599.5,308.5C 595.5,308.5 591.5,308.5 587.5,308.5C 587.5,304.5 587.5,300.5 587.5,296.5 Z"/></g>
<g><path style="opacity:1" fill="#000000" d="M 600.5,282.5 C 604.5,282.5 608.5,282.5 612.5,282.5C 612.5,286.833 612.5,291.167 612.5,295.5C 608.5,295.5 604.5,295.5 600.5,295.5C 600.5,291.167 600.5,286.833 600.5,282.5 Z"/></g>
<g><path style="opacity:1" fill="#000000" d="M 587.5,282.5 C 591.5,282.5 595.5,282.5 599.5,282.5C 599.5,286.833 599.5,291.167 599.5,295.5C 595.5,295.5 591.5,295.5 587.5,295.5C 587.5,291.167 587.5,286.833 587.5,282.5 Z"/></g>
<g><path style="opacity:1" fill="#070707" d="M 640.5,295.5 C 648.984,296.493 657.651,296.826 666.5,296.5C 666.5,305.167 666.5,313.833 666.5,322.5C 662.5,322.5 658.5,322.5 654.5,322.5C 654.5,317.833 654.5,313.167 654.5,308.5C 649.637,308.181 644.97,308.514 640.5,309.5C 640.5,313.833 640.5,318.167 640.5,322.5C 636.167,322.5 631.833,322.5 627.5,322.5C 627.5,331.5 627.5,340.5 627.5,349.5C 622.833,349.5 618.167,349.5 613.5,349.5C 613.5,336.167 613.5,322.833 613.5,309.5C 609.366,308.515 605.032,308.182 600.5,308.5C 600.5,304.5 600.5,300.5 600.5,296.5C 604.833,296.5 609.167,296.5 613.5,296.5C 618.167,296.5 622.833,296.5 627.5,296.5C 627.5,291.833 627.5,287.167 627.5,282.5C 631.5,282.5 635.5,282.5 639.5,282.5C 639.182,287.032 639.515,291.366 640.5,295.5 Z"/></g>
<g><path style="opacity:1" fill="#5e5e5e" d="M 411.5,295.5 C 416.167,295.5 420.833,295.5 425.5,295.5C 425.5,300.167 425.5,304.833 425.5,309.5C 420.833,309.5 416.167,309.5 411.5,309.5C 411.5,304.833 411.5,300.167 411.5,295.5 Z"/></g>
<g><path style="opacity:1" fill="#000000" d="M 412.5,296.5 C 416.5,296.5 420.5,296.5 424.5,296.5C 424.5,300.5 424.5,304.5 424.5,308.5C 420.5,308.5 416.5,308.5 412.5,308.5C 412.5,304.5 412.5,300.5 412.5,296.5 Z"/></g>
<g><path style="opacity:1" fill="#696969" d="M 532.5,282.5 C 532.833,282.5 533.167,282.5 533.5,282.5C 533.5,291.5 533.5,300.5 533.5,309.5C 528.833,309.5 524.167,309.5 519.5,309.5C 506.167,309.5 492.833,309.5 479.5,309.5C 492.323,308.505 505.323,308.171 518.5,308.5C 518.833,308.5 519.167,308.5 519.5,308.5C 523.833,308.5 528.167,308.5 532.5,308.5C 532.5,299.833 532.5,291.167 532.5,282.5 Z"/></g>
<g><path style="opacity:1" fill="#7b7b7b" d="M 573.5,295.5 C 573.5,295.833 573.5,296.167 573.5,296.5C 573.5,300.5 573.5,304.5 573.5,308.5C 577.833,308.5 582.167,308.5 586.5,308.5C 586.5,308.833 586.5,309.167 586.5,309.5C 581.833,309.5 577.167,309.5 572.5,309.5C 572.181,304.637 572.514,299.97 573.5,295.5 Z"/></g>
<g><path style="opacity:1" fill="#474747" d="M 680.5,282.5 C 681.485,286.634 681.818,290.968 681.5,295.5C 690.167,295.5 698.833,295.5 707.5,295.5C 707.833,295.5 708.167,295.5 708.5,295.5C 708.5,299.833 708.5,304.167 708.5,308.5C 712.5,308.5 716.5,308.5 720.5,308.5C 720.5,299.833 720.5,291.167 720.5,282.5C 720.833,282.5 721.167,282.5 721.5,282.5C 721.829,296.01 721.496,309.344 720.5,322.5C 720.5,318.167 720.5,313.833 720.5,309.5C 716.5,309.5 712.5,309.5 708.5,309.5C 708.5,313.833 708.5,318.167 708.5,322.5C 707.515,318.366 707.182,314.032 707.5,309.5C 703.167,309.5 698.833,309.5 694.5,309.5C 698.634,308.515 702.968,308.182 707.5,308.5C 707.5,304.5 707.5,300.5 707.5,296.5C 698.833,296.5 690.167,296.5 681.5,296.5C 681.5,305.167 681.5,313.833 681.5,322.5C 680.507,313.682 680.173,304.682 680.5,295.5C 680.5,291.167 680.5,286.833 680.5,282.5 Z"/></g>
<g><path style="opacity:1" fill="#000000" d="M 720.5,282.5 C 720.5,291.167 720.5,299.833 720.5,308.5C 716.5,308.5 712.5,308.5 708.5,308.5C 708.5,304.167 708.5,299.833 708.5,295.5C 708.5,291.167 708.5,286.833 708.5,282.5C 712.5,282.5 716.5,282.5 720.5,282.5 Z"/></g>
<g><path style="opacity:1" fill="#fbfbfb" d="M 479.5,309.5 C 492.833,309.5 506.167,309.5 519.5,309.5C 519.5,313.833 519.5,318.167 519.5,322.5C 506.167,322.5 492.833,322.5 479.5,322.5C 479.5,318.167 479.5,313.833 479.5,309.5 Z"/></g>
<g><path style="opacity:1" fill="#fbfbfb" d="M 600.5,309.5 C 604.833,309.5 609.167,309.5 613.5,309.5C 613.5,322.833 613.5,336.167 613.5,349.5C 604.5,349.5 595.5,349.5 586.5,349.5C 586.5,345.167 586.5,340.833 586.5,336.5C 591.167,336.5 595.833,336.5 600.5,336.5C 600.5,327.5 600.5,318.5 600.5,309.5 Z"/></g>
<g><path style="opacity:1" fill="#363636" d="M 640.5,295.5 C 649.5,295.5 658.5,295.5 667.5,295.5C 667.827,304.682 667.493,313.682 666.5,322.5C 666.5,313.833 666.5,305.167 666.5,296.5C 657.651,296.826 648.984,296.493 640.5,295.5 Z"/></g>
<g><path style="opacity:1" fill="#040404" d="M 694.5,309.5 C 694.5,313.833 694.5,318.167 694.5,322.5C 690.167,322.5 685.833,322.5 681.5,322.5C 681.5,313.833 681.5,305.167 681.5,296.5C 690.167,296.5 698.833,296.5 707.5,296.5C 707.5,300.5 707.5,304.5 707.5,308.5C 702.968,308.182 698.634,308.515 694.5,309.5 Z"/></g>
<g><path style="opacity:1" fill="#010101" d="M 720.5,322.5 C 716.5,322.5 712.5,322.5 708.5,322.5C 708.5,318.167 708.5,313.833 708.5,309.5C 712.5,309.5 716.5,309.5 720.5,309.5C 720.5,313.833 720.5,318.167 720.5,322.5 Z"/></g>
<g><path style="opacity:1" fill="#777777" d="M 640.5,309.5 C 644.97,308.514 649.637,308.181 654.5,308.5C 654.5,313.167 654.5,317.833 654.5,322.5C 653.515,318.366 653.182,314.032 653.5,309.5C 649.167,309.5 644.833,309.5 640.5,309.5 Z"/></g>
<g><path style="opacity:1" fill="#707070" d="M 357.5,309.5 C 358.493,318.318 358.827,327.318 358.5,336.5C 353.833,336.5 349.167,336.5 344.5,336.5C 348.634,335.515 352.968,335.182 357.5,335.5C 357.5,326.833 357.5,318.167 357.5,309.5 Z"/></g>
<g><path style="opacity:1" fill="#3e3e3e" d="M 438.5,323.5 C 429.833,323.5 421.167,323.5 412.5,323.5C 412.5,327.5 412.5,331.5 412.5,335.5C 412.167,335.5 411.833,335.5 411.5,335.5C 411.5,331.167 411.5,326.833 411.5,322.5C 420.682,322.173 429.682,322.507 438.5,323.5 Z"/></g>
<g><path style="opacity:1" fill="#383838" d="M 479.5,323.5 C 479.5,323.167 479.5,322.833 479.5,322.5C 492.833,322.5 506.167,322.5 519.5,322.5C 515.366,323.485 511.032,323.818 506.5,323.5C 506.5,331.833 506.5,340.167 506.5,348.5C 510.5,348.5 514.5,348.5 518.5,348.5C 518.182,343.968 518.515,339.634 519.5,335.5C 519.5,335.833 519.5,336.167 519.5,336.5C 519.5,340.833 519.5,345.167 519.5,349.5C 514.833,349.5 510.167,349.5 505.5,349.5C 505.5,345.167 505.5,340.833 505.5,336.5C 505.5,336.167 505.5,335.833 505.5,335.5C 505.5,331.5 505.5,327.5 505.5,323.5C 496.833,323.5 488.167,323.5 479.5,323.5 Z"/></g>
<g><path style="opacity:1" fill="#010101" d="M 438.5,323.5 C 438.5,327.5 438.5,331.5 438.5,335.5C 429.833,335.5 421.167,335.5 412.5,335.5C 412.5,331.5 412.5,327.5 412.5,323.5C 421.167,323.5 429.833,323.5 438.5,323.5 Z"/></g>
<g><path style="opacity:1" fill="#f7f7f7" d="M 478.5,322.5 C 478.5,326.833 478.5,331.167 478.5,335.5C 474.167,335.5 469.833,335.5 465.5,335.5C 465.5,331.167 465.5,326.833 465.5,322.5C 469.833,322.5 474.167,322.5 478.5,322.5 Z"/></g>
<g><path style="opacity:1" fill="#000000" d="M 479.5,323.5 C 488.167,323.5 496.833,323.5 505.5,323.5C 505.5,327.5 505.5,331.5 505.5,335.5C 496.833,335.5 488.167,335.5 479.5,335.5C 479.5,331.5 479.5,327.5 479.5,323.5 Z"/></g>
<g><path style="opacity:1" fill="#050505" d="M 533.5,282.5 C 537.833,282.5 542.167,282.5 546.5,282.5C 546.5,295.833 546.5,309.167 546.5,322.5C 541.833,322.5 537.167,322.5 532.5,322.5C 532.5,326.833 532.5,331.167 532.5,335.5C 528.167,335.5 523.833,335.5 519.5,335.5C 518.515,339.634 518.182,343.968 518.5,348.5C 514.5,348.5 510.5,348.5 506.5,348.5C 506.5,340.167 506.5,331.833 506.5,323.5C 511.032,323.818 515.366,323.485 519.5,322.5C 519.5,318.167 519.5,313.833 519.5,309.5C 524.167,309.5 528.833,309.5 533.5,309.5C 533.5,300.5 533.5,291.5 533.5,282.5 Z"/></g>
<g><path style="opacity:1" fill="#040404" d="M 599.5,309.5 C 599.5,318.167 599.5,326.833 599.5,335.5C 594.968,335.182 590.634,335.515 586.5,336.5C 586.5,340.833 586.5,345.167 586.5,349.5C 582.167,349.5 577.833,349.5 573.5,349.5C 573.5,344.833 573.5,340.167 573.5,335.5C 568.833,335.5 564.167,335.5 559.5,335.5C 559.5,349.167 559.5,362.833 559.5,376.5C 555.167,376.5 550.833,376.5 546.5,376.5C 546.5,358.5 546.5,340.5 546.5,322.5C 559.833,322.5 573.167,322.5 586.5,322.5C 587.485,318.366 587.818,314.032 587.5,309.5C 591.5,309.5 595.5,309.5 599.5,309.5 Z"/></g>
<g><path style="opacity:1" fill="#6e6e6e" d="M 599.5,309.5 C 599.833,309.5 600.167,309.5 600.5,309.5C 600.5,318.5 600.5,327.5 600.5,336.5C 595.833,336.5 591.167,336.5 586.5,336.5C 590.634,335.515 594.968,335.182 599.5,335.5C 599.5,326.833 599.5,318.167 599.5,309.5 Z"/></g>
<g><path style="opacity:1" fill="#848484" d="M 371.5,335.5 C 384.833,335.5 398.167,335.5 411.5,335.5C 411.833,335.5 412.167,335.5 412.5,335.5C 421.167,335.5 429.833,335.5 438.5,335.5C 430.016,336.493 421.349,336.826 412.5,336.5C 412.5,340.833 412.5,345.167 412.5,349.5C 411.515,345.366 411.182,341.032 411.5,336.5C 397.99,336.829 384.656,336.496 371.5,335.5 Z"/></g>
<g><path style="opacity:1" fill="#ababab" d="M 546.5,322.5 C 546.5,340.5 546.5,358.5 546.5,376.5C 545.503,359.008 545.17,341.341 545.5,323.5C 541.5,323.5 537.5,323.5 533.5,323.5C 533.5,327.833 533.5,332.167 533.5,336.5C 528.833,336.5 524.167,336.5 519.5,336.5C 519.5,336.167 519.5,335.833 519.5,335.5C 523.833,335.5 528.167,335.5 532.5,335.5C 532.5,331.167 532.5,326.833 532.5,322.5C 537.167,322.5 541.833,322.5 546.5,322.5 Z"/></g>
<g><path style="opacity:1" fill="#a5a5a5" d="M 573.5,349.5 C 572.515,345.366 572.182,341.032 572.5,336.5C 568.5,336.5 564.5,336.5 560.5,336.5C 560.5,349.5 560.5,362.5 560.5,375.5C 564.5,375.5 568.5,375.5 572.5,375.5C 572.5,375.833 572.5,376.167 572.5,376.5C 568.5,376.5 564.5,376.5 560.5,376.5C 560.167,376.5 559.833,376.5 559.5,376.5C 559.5,362.833 559.5,349.167 559.5,335.5C 564.167,335.5 568.833,335.5 573.5,335.5C 573.5,340.167 573.5,344.833 573.5,349.5 Z"/></g>
<g><path style="opacity:1" fill="#fdfdfd" d="M 573.5,349.5 C 577.833,349.5 582.167,349.5 586.5,349.5C 586.5,353.833 586.5,358.167 586.5,362.5C 581.833,362.5 577.167,362.5 572.5,362.5C 572.5,366.833 572.5,371.167 572.5,375.5C 568.5,375.5 564.5,375.5 560.5,375.5C 560.5,362.5 560.5,349.5 560.5,336.5C 564.5,336.5 568.5,336.5 572.5,336.5C 572.182,341.032 572.515,345.366 573.5,349.5 Z"/></g>
<g><path style="opacity:1" fill="#3b3b3b" d="M 694.5,349.5 C 676.5,349.5 658.5,349.5 640.5,349.5C 640.5,344.833 640.5,340.167 640.5,335.5C 658.5,335.5 676.5,335.5 694.5,335.5C 694.5,340.167 694.5,344.833 694.5,349.5 Z"/></g>
<g><path style="opacity:1" fill="#010101" d="M 641.5,336.5 C 658.833,336.5 676.167,336.5 693.5,336.5C 693.5,340.5 693.5,344.5 693.5,348.5C 676.167,348.5 658.833,348.5 641.5,348.5C 641.5,344.5 641.5,340.5 641.5,336.5 Z"/></g>
<g><path style="opacity:1" fill="#303030" d="M 586.5,349.5 C 595.5,349.5 604.5,349.5 613.5,349.5C 613.5,349.833 613.5,350.167 613.5,350.5C 604.833,350.5 596.167,350.5 587.5,350.5C 587.5,354.5 587.5,358.5 587.5,362.5C 587.167,362.5 586.833,362.5 586.5,362.5C 586.5,358.167 586.5,353.833 586.5,349.5 Z"/></g>
<g><path style="opacity:1" fill="#d1d1d1" d="M 640.5,349.5 C 658.5,349.5 676.5,349.5 694.5,349.5C 694.5,353.833 694.5,358.167 694.5,362.5C 694.5,362.833 694.5,363.167 694.5,363.5C 693.515,359.366 693.182,355.032 693.5,350.5C 675.659,350.83 657.992,350.497 640.5,349.5 Z"/></g>
<g><path style="opacity:1" fill="#040404" d="M 344.5,296.5 C 362.167,296.5 379.833,296.5 397.5,296.5C 397.5,300.5 397.5,304.5 397.5,308.5C 392.968,308.182 388.634,308.515 384.5,309.5C 384.5,313.833 384.5,318.167 384.5,322.5C 380.167,322.5 375.833,322.5 371.5,322.5C 371.5,326.833 371.5,331.167 371.5,335.5C 384.656,336.496 397.99,336.829 411.5,336.5C 411.182,341.032 411.515,345.366 412.5,349.5C 421.167,349.5 429.833,349.5 438.5,349.5C 438.5,353.833 438.5,358.167 438.5,362.5C 442.634,363.485 446.968,363.818 451.5,363.5C 451.5,367.833 451.5,372.167 451.5,376.5C 442.833,376.5 434.167,376.5 425.5,376.5C 425.5,371.833 425.5,367.167 425.5,362.5C 398.5,362.5 371.5,362.5 344.5,362.5C 344.5,353.833 344.5,345.167 344.5,336.5C 349.167,336.5 353.833,336.5 358.5,336.5C 358.827,327.318 358.493,318.318 357.5,309.5C 353.167,309.5 348.833,309.5 344.5,309.5C 344.5,305.167 344.5,300.833 344.5,296.5 Z"/></g>
<g><path style="opacity:1" fill="#070707" d="M 479.5,349.5 C 483.833,349.5 488.167,349.5 492.5,349.5C 492.5,353.833 492.5,358.167 492.5,362.5C 492.5,358.167 492.5,353.833 492.5,349.5C 488.167,349.5 483.833,349.5 479.5,349.5 Z"/></g>
<g><path style="opacity:1" fill="#030303" d="M 694.5,349.5 C 698.833,349.5 703.167,349.5 707.5,349.5C 707.5,353.833 707.5,358.167 707.5,362.5C 703.167,362.5 698.833,362.5 694.5,362.5C 694.5,358.167 694.5,353.833 694.5,349.5 Z"/></g>
<g><path style="opacity:1" fill="#828282" d="M 344.5,362.5 C 371.5,362.5 398.5,362.5 425.5,362.5C 425.5,367.167 425.5,371.833 425.5,376.5C 425.5,381.167 425.5,385.833 425.5,390.5C 420.833,390.5 416.167,390.5 411.5,390.5C 411.181,385.637 411.514,380.97 412.5,376.5C 412.5,380.833 412.5,385.167 412.5,389.5C 416.5,389.5 420.5,389.5 424.5,389.5C 424.5,385.167 424.5,380.833 424.5,376.5C 424.5,372.167 424.5,367.833 424.5,363.5C 397.661,363.831 370.995,363.498 344.5,362.5 Z"/></g>
<g><path style="opacity:1" fill="#818181" d="M 479.5,309.5 C 479.5,313.833 479.5,318.167 479.5,322.5C 479.5,322.833 479.5,323.167 479.5,323.5C 479.5,327.5 479.5,331.5 479.5,335.5C 488.167,335.5 496.833,335.5 505.5,335.5C 505.5,335.833 505.5,336.167 505.5,336.5C 496.833,336.5 488.167,336.5 479.5,336.5C 479.5,340.833 479.5,345.167 479.5,349.5C 479.5,353.833 479.5,358.167 479.5,362.5C 483.833,362.5 488.167,362.5 492.5,362.5C 506.167,362.5 519.833,362.5 533.5,362.5C 533.819,367.363 533.486,372.03 532.5,376.5C 532.5,372.167 532.5,367.833 532.5,363.5C 523.833,363.5 515.167,363.5 506.5,363.5C 506.167,363.5 505.833,363.5 505.5,363.5C 501.5,363.5 497.5,363.5 493.5,363.5C 493.167,363.5 492.833,363.5 492.5,363.5C 488.167,363.5 483.833,363.5 479.5,363.5C 479.5,376.833 479.5,390.167 479.5,403.5C 479.5,407.833 479.5,412.167 479.5,416.5C 497.167,416.5 514.833,416.5 532.5,416.5C 515.008,417.497 497.341,417.83 479.5,417.5C 479.818,422.032 479.485,426.366 478.5,430.5C 478.5,430.167 478.5,429.833 478.5,429.5C 478.5,425.5 478.5,421.5 478.5,417.5C 473.968,417.818 469.634,417.485 465.5,416.5C 469.833,416.5 474.167,416.5 478.5,416.5C 478.5,412.167 478.5,407.833 478.5,403.5C 478.5,403.167 478.5,402.833 478.5,402.5C 478.5,389.5 478.5,376.5 478.5,363.5C 474.5,363.5 470.5,363.5 466.5,363.5C 466.167,363.5 465.833,363.5 465.5,363.5C 469.634,362.515 473.968,362.182 478.5,362.5C 478.5,358.167 478.5,353.833 478.5,349.5C 478.5,345.167 478.5,340.833 478.5,336.5C 473.968,336.818 469.634,336.485 465.5,335.5C 469.833,335.5 474.167,335.5 478.5,335.5C 478.5,331.167 478.5,326.833 478.5,322.5C 478.182,317.968 478.515,313.634 479.5,309.5 Z"/></g>
<g><path style="opacity:1" fill="#8f8f8f" d="M 707.5,349.5 C 708.486,353.97 708.819,358.637 708.5,363.5C 703.833,363.5 699.167,363.5 694.5,363.5C 694.5,363.167 694.5,362.833 694.5,362.5C 698.833,362.5 703.167,362.5 707.5,362.5C 707.5,358.167 707.5,353.833 707.5,349.5 Z"/></g>
<g><path style="opacity:1" fill="#000000" d="M 466.5,363.5 C 470.5,363.5 474.5,363.5 478.5,363.5C 478.5,376.5 478.5,389.5 478.5,402.5C 474.5,402.5 470.5,402.5 466.5,402.5C 466.5,389.5 466.5,376.5 466.5,363.5 Z"/></g>
<g><path style="opacity:1" fill="#fbfafb" d="M 492.5,363.5 C 492.5,367.833 492.5,372.167 492.5,376.5C 496.833,376.5 501.167,376.5 505.5,376.5C 505.5,380.833 505.5,385.167 505.5,389.5C 500.968,389.182 496.634,389.515 492.5,390.5C 492.5,394.833 492.5,399.167 492.5,403.5C 488.167,403.5 483.833,403.5 479.5,403.5C 479.5,390.167 479.5,376.833 479.5,363.5C 483.833,363.5 488.167,363.5 492.5,363.5 Z"/></g>
<g><path style="opacity:1" fill="#030303" d="M 506.5,363.5 C 515.167,363.5 523.833,363.5 532.5,363.5C 532.5,367.833 532.5,372.167 532.5,376.5C 528.167,376.5 523.833,376.5 519.5,376.5C 519.5,380.833 519.5,385.167 519.5,389.5C 515.167,389.5 510.833,389.5 506.5,389.5C 506.5,385.167 506.5,380.833 506.5,376.5C 506.5,372.167 506.5,367.833 506.5,363.5 Z"/></g>
<g><path style="opacity:1" fill="#868686" d="M 586.5,362.5 C 586.833,362.5 587.167,362.5 587.5,362.5C 591.833,362.5 596.167,362.5 600.5,362.5C 600.5,371.833 600.5,381.167 600.5,390.5C 596.167,390.5 591.833,390.5 587.5,390.5C 587.167,390.5 586.833,390.5 586.5,390.5C 590.634,389.515 594.968,389.182 599.5,389.5C 599.5,380.833 599.5,372.167 599.5,363.5C 595.5,363.5 591.5,363.5 587.5,363.5C 587.818,368.032 587.485,372.366 586.5,376.5C 586.5,372.167 586.5,367.833 586.5,363.5C 582.167,363.5 577.833,363.5 573.5,363.5C 573.5,367.833 573.5,372.167 573.5,376.5C 573.5,381.167 573.5,385.833 573.5,390.5C 568.833,390.5 564.167,390.5 559.5,390.5C 559.5,385.833 559.5,381.167 559.5,376.5C 559.833,376.5 560.167,376.5 560.5,376.5C 560.5,380.833 560.5,385.167 560.5,389.5C 564.5,389.5 568.5,389.5 572.5,389.5C 572.5,385.167 572.5,380.833 572.5,376.5C 572.5,376.167 572.5,375.833 572.5,375.5C 572.5,371.167 572.5,366.833 572.5,362.5C 577.167,362.5 581.833,362.5 586.5,362.5 Z"/></g>
<g><path style="opacity:1" fill="#050505" d="M 586.5,376.5 C 582.167,376.5 577.833,376.5 573.5,376.5C 573.5,372.167 573.5,367.833 573.5,363.5C 577.833,363.5 582.167,363.5 586.5,363.5C 586.5,367.833 586.5,372.167 586.5,376.5 Z"/></g>
<g><path style="opacity:1" fill="#777777" d="M 438.5,362.5 C 443.167,362.5 447.833,362.5 452.5,362.5C 452.5,367.167 452.5,371.833 452.5,376.5C 452.5,376.833 452.5,377.167 452.5,377.5C 452.5,381.5 452.5,385.5 452.5,389.5C 451.515,385.366 451.182,381.032 451.5,376.5C 451.5,372.167 451.5,367.833 451.5,363.5C 446.968,363.818 442.634,363.485 438.5,362.5 Z"/></g>
<g><path style="opacity:1" fill="#767676" d="M 613.5,362.5 C 618.167,362.5 622.833,362.5 627.5,362.5C 627.5,367.167 627.5,371.833 627.5,376.5C 626.515,372.366 626.182,368.032 626.5,363.5C 621.968,363.818 617.634,363.485 613.5,362.5 Z"/></g>
<g><path style="opacity:1" fill="#2a2a2a" d="M 492.5,363.5 C 492.833,363.5 493.167,363.5 493.5,363.5C 493.5,367.5 493.5,371.5 493.5,375.5C 497.5,375.5 501.5,375.5 505.5,375.5C 505.5,371.5 505.5,367.5 505.5,363.5C 505.833,363.5 506.167,363.5 506.5,363.5C 506.5,367.833 506.5,372.167 506.5,376.5C 506.167,376.5 505.833,376.5 505.5,376.5C 501.167,376.5 496.833,376.5 492.5,376.5C 492.5,372.167 492.5,367.833 492.5,363.5 Z"/></g>
<g><path style="opacity:1" fill="#000000" d="M 493.5,363.5 C 497.5,363.5 501.5,363.5 505.5,363.5C 505.5,367.5 505.5,371.5 505.5,375.5C 501.5,375.5 497.5,375.5 493.5,375.5C 493.5,371.5 493.5,367.5 493.5,363.5 Z"/></g>
<g><path style="opacity:1" fill="#040404" d="M 613.5,350.5 C 613.5,354.5 613.5,358.5 613.5,362.5C 617.634,363.485 621.968,363.818 626.5,363.5C 626.182,368.032 626.515,372.366 627.5,376.5C 631.833,376.5 636.167,376.5 640.5,376.5C 640.5,372.167 640.5,367.833 640.5,363.5C 653.833,363.5 667.167,363.5 680.5,363.5C 680.5,372.167 680.5,380.833 680.5,389.5C 676.167,389.5 671.833,389.5 667.5,389.5C 666.506,398.652 666.173,407.985 666.5,417.5C 671.167,417.5 675.833,417.5 680.5,417.5C 680.5,421.833 680.5,426.167 680.5,430.5C 685.167,430.5 689.833,430.5 694.5,430.5C 694.5,434.833 694.5,439.167 694.5,443.5C 689.833,443.5 685.167,443.5 680.5,443.5C 680.5,448.167 680.5,452.833 680.5,457.5C 685.167,457.5 689.833,457.5 694.5,457.5C 694.5,470.833 694.5,484.167 694.5,497.5C 689.833,497.5 685.167,497.5 680.5,497.5C 680.5,493.167 680.5,488.833 680.5,484.5C 672.016,483.507 663.349,483.174 654.5,483.5C 654.5,479.167 654.5,474.833 654.5,470.5C 658.5,470.5 662.5,470.5 666.5,470.5C 667.493,461.682 667.827,452.682 667.5,443.5C 663.167,443.5 658.833,443.5 654.5,443.5C 653.515,447.634 653.182,451.968 653.5,456.5C 648.968,456.182 644.634,456.515 640.5,457.5C 639.507,465.984 639.174,474.651 639.5,483.5C 635.5,483.5 631.5,483.5 627.5,483.5C 627.5,474.5 627.5,465.5 627.5,456.5C 614.167,456.5 600.833,456.5 587.5,456.5C 587.5,434.5 587.5,412.5 587.5,390.5C 591.833,390.5 596.167,390.5 600.5,390.5C 600.5,381.167 600.5,371.833 600.5,362.5C 596.167,362.5 591.833,362.5 587.5,362.5C 587.5,358.5 587.5,354.5 587.5,350.5C 596.167,350.5 604.833,350.5 613.5,350.5 Z"/></g>
<g><path style="opacity:1" fill="#020202" d="M 412.5,376.5 C 416.5,376.5 420.5,376.5 424.5,376.5C 424.5,380.833 424.5,385.167 424.5,389.5C 420.5,389.5 416.5,389.5 412.5,389.5C 412.5,385.167 412.5,380.833 412.5,376.5 Z"/></g>
<g><path style="opacity:1" fill="#000000" d="M 452.5,377.5 C 456.833,377.5 461.167,377.5 465.5,377.5C 465.5,381.5 465.5,385.5 465.5,389.5C 461.167,389.5 456.833,389.5 452.5,389.5C 452.5,385.5 452.5,381.5 452.5,377.5 Z"/></g>
<g><path style="opacity:1" fill="#222222" d="M 465.5,363.5 C 465.833,363.5 466.167,363.5 466.5,363.5C 466.5,376.5 466.5,389.5 466.5,402.5C 470.5,402.5 474.5,402.5 478.5,402.5C 478.5,402.833 478.5,403.167 478.5,403.5C 474.167,403.5 469.833,403.5 465.5,403.5C 465.5,398.833 465.5,394.167 465.5,389.5C 465.5,385.5 465.5,381.5 465.5,377.5C 461.167,377.5 456.833,377.5 452.5,377.5C 452.5,377.167 452.5,376.833 452.5,376.5C 456.833,376.5 461.167,376.5 465.5,376.5C 465.5,372.167 465.5,367.833 465.5,363.5 Z"/></g>
<g><path style="opacity:1" fill="#020202" d="M 560.5,376.5 C 564.5,376.5 568.5,376.5 572.5,376.5C 572.5,380.833 572.5,385.167 572.5,389.5C 568.5,389.5 564.5,389.5 560.5,389.5C 560.5,385.167 560.5,380.833 560.5,376.5 Z"/></g>
<g><path style="opacity:1" fill="#737373" d="M 385.5,376.5 C 385.5,380.833 385.5,385.167 385.5,389.5C 389.5,389.5 393.5,389.5 397.5,389.5C 397.5,385.167 397.5,380.833 397.5,376.5C 398.486,380.97 398.819,385.637 398.5,390.5C 393.833,390.5 389.167,390.5 384.5,390.5C 384.181,385.637 384.514,380.97 385.5,376.5 Z"/></g>
<g><path style="opacity:1" fill="#020202" d="M 385.5,376.5 C 389.5,376.5 393.5,376.5 397.5,376.5C 397.5,380.833 397.5,385.167 397.5,389.5C 393.5,389.5 389.5,389.5 385.5,389.5C 385.5,385.167 385.5,380.833 385.5,376.5 Z"/></g>
<g><path style="opacity:1" fill="#707070" d="M 505.5,376.5 C 505.833,376.5 506.167,376.5 506.5,376.5C 506.5,380.833 506.5,385.167 506.5,389.5C 510.833,389.5 515.167,389.5 519.5,389.5C 528.5,389.5 537.5,389.5 546.5,389.5C 546.5,394.167 546.5,398.833 546.5,403.5C 542.167,403.5 537.833,403.5 533.5,403.5C 533.818,408.032 533.485,412.366 532.5,416.5C 532.5,411.833 532.5,407.167 532.5,402.5C 536.833,402.5 541.167,402.5 545.5,402.5C 545.5,398.5 545.5,394.5 545.5,390.5C 536.833,390.5 528.167,390.5 519.5,390.5C 515.167,390.5 510.833,390.5 506.5,390.5C 506.5,394.833 506.5,399.167 506.5,403.5C 505.515,399.366 505.182,395.032 505.5,390.5C 501.167,390.5 496.833,390.5 492.5,390.5C 496.634,389.515 500.968,389.182 505.5,389.5C 505.5,385.167 505.5,380.833 505.5,376.5 Z"/></g>
<g><path style="opacity:1" fill="#777777" d="M 640.5,363.5 C 653.99,362.504 667.656,362.171 681.5,362.5C 681.5,371.5 681.5,380.5 681.5,389.5C 690.167,389.5 698.833,389.5 707.5,389.5C 707.182,384.968 707.515,380.634 708.5,376.5C 708.5,380.833 708.5,385.167 708.5,389.5C 712.5,389.5 716.5,389.5 720.5,389.5C 720.5,385.167 720.5,380.833 720.5,376.5C 721.486,380.97 721.819,385.637 721.5,390.5C 717.167,390.5 712.833,390.5 708.5,390.5C 708.167,390.5 707.833,390.5 707.5,390.5C 698.833,390.5 690.167,390.5 681.5,390.5C 681.5,394.833 681.5,399.167 681.5,403.5C 680.515,399.366 680.182,395.032 680.5,390.5C 676.167,390.5 671.833,390.5 667.5,390.5C 667.5,390.167 667.5,389.833 667.5,389.5C 671.833,389.5 676.167,389.5 680.5,389.5C 680.5,380.833 680.5,372.167 680.5,363.5C 667.167,363.5 653.833,363.5 640.5,363.5 Z"/></g>
<g><path style="opacity:1" fill="#020202" d="M 708.5,376.5 C 712.5,376.5 716.5,376.5 720.5,376.5C 720.5,380.833 720.5,385.167 720.5,389.5C 716.5,389.5 712.5,389.5 708.5,389.5C 708.5,385.167 708.5,380.833 708.5,376.5 Z"/></g>
<g><path style="opacity:1" fill="#fdfdfd" d="M 614.5,390.5 C 627.5,390.5 640.5,390.5 653.5,390.5C 653.5,403.5 653.5,416.5 653.5,429.5C 653.5,416.5 653.5,403.5 653.5,390.5C 640.5,390.5 627.5,390.5 614.5,390.5 Z"/></g>
<g><path style="opacity:1" fill="#c1c1c1" d="M 452.5,389.5 C 456.833,389.5 461.167,389.5 465.5,389.5C 465.5,394.167 465.5,398.833 465.5,403.5C 456.833,403.5 448.167,403.5 439.5,403.5C 439.167,403.5 438.833,403.5 438.5,403.5C 446.984,402.507 455.651,402.174 464.5,402.5C 464.5,398.5 464.5,394.5 464.5,390.5C 460.298,390.817 456.298,390.483 452.5,389.5 Z"/></g>
<g><path style="opacity:1" fill="#b4b4b4" d="M 707.5,390.5 C 707.833,390.5 708.167,390.5 708.5,390.5C 708.5,394.5 708.5,398.5 708.5,402.5C 713.032,402.182 717.366,402.515 721.5,403.5C 721.167,403.5 720.833,403.5 720.5,403.5C 716.167,403.5 711.833,403.5 707.5,403.5C 707.5,399.167 707.5,394.833 707.5,390.5 Z"/></g>
<g><path style="opacity:1" fill="#020202" d="M 492.5,390.5 C 496.833,390.5 501.167,390.5 505.5,390.5C 505.182,395.032 505.515,399.366 506.5,403.5C 510.833,403.5 515.167,403.5 519.5,403.5C 519.5,399.167 519.5,394.833 519.5,390.5C 528.167,390.5 536.833,390.5 545.5,390.5C 545.5,394.5 545.5,398.5 545.5,402.5C 541.167,402.5 536.833,402.5 532.5,402.5C 532.5,407.167 532.5,411.833 532.5,416.5C 514.833,416.5 497.167,416.5 479.5,416.5C 479.5,412.167 479.5,407.833 479.5,403.5C 483.833,403.5 488.167,403.5 492.5,403.5C 492.5,399.167 492.5,394.833 492.5,390.5 Z"/></g>
<g><path style="opacity:1" fill="#f5f5f5" d="M 519.5,390.5 C 519.5,394.833 519.5,399.167 519.5,403.5C 515.167,403.5 510.833,403.5 506.5,403.5C 506.5,399.167 506.5,394.833 506.5,390.5C 510.833,390.5 515.167,390.5 519.5,390.5 Z"/></g>
<g><path style="opacity:1" fill="#848484" d="M 613.5,390.5 C 626.99,389.504 640.656,389.171 654.5,389.5C 654.829,403.344 654.496,417.01 653.5,430.5C 653.5,430.167 653.5,429.833 653.5,429.5C 653.5,416.5 653.5,403.5 653.5,390.5C 640.5,390.5 627.5,390.5 614.5,390.5C 614.167,390.5 613.833,390.5 613.5,390.5 Z"/></g>
<g><path style="opacity:1" fill="#383838" d="M 667.5,389.5 C 667.5,389.833 667.5,390.167 667.5,390.5C 667.5,399.167 667.5,407.833 667.5,416.5C 671.833,416.5 676.167,416.5 680.5,416.5C 680.5,416.833 680.5,417.167 680.5,417.5C 675.833,417.5 671.167,417.5 666.5,417.5C 666.173,407.985 666.506,398.652 667.5,389.5 Z"/></g>
<g><path style="opacity:1" fill="#fafafa" d="M 465.5,403.5 C 469.833,403.5 474.167,403.5 478.5,403.5C 478.5,407.833 478.5,412.167 478.5,416.5C 474.167,416.5 469.833,416.5 465.5,416.5C 465.5,412.167 465.5,407.833 465.5,403.5 Z"/></g>
<g><path style="opacity:1" fill="#020202" d="M 546.5,403.5 C 555.167,403.5 563.833,403.5 572.5,403.5C 572.5,412.167 572.5,420.833 572.5,429.5C 563.833,429.5 555.167,429.5 546.5,429.5C 546.5,420.833 546.5,412.167 546.5,403.5 Z"/></g>
<g><path style="opacity:1" fill="#040404" d="M 627.5,403.5 C 631.833,403.5 636.167,403.5 640.5,403.5C 640.5,407.833 640.5,412.167 640.5,416.5C 640.5,412.167 640.5,407.833 640.5,403.5C 636.167,403.5 631.833,403.5 627.5,403.5 Z"/></g>
<g><path style="opacity:1" fill="#9a9a9a" d="M 627.5,403.5 C 627.5,407.833 627.5,412.167 627.5,416.5C 631.833,416.5 636.167,416.5 640.5,416.5C 636.03,417.486 631.363,417.819 626.5,417.5C 626.181,412.637 626.514,407.97 627.5,403.5 Z"/></g>
<g><path style="opacity:1" fill="#050505" d="M 331.5,403.5 C 362.833,403.5 394.167,403.5 425.5,403.5C 425.5,434.833 425.5,466.167 425.5,497.5C 394.167,497.5 362.833,497.5 331.5,497.5C 331.5,493.167 331.5,488.833 331.5,484.5C 335.833,484.5 340.167,484.5 344.5,484.5C 367.167,484.5 389.833,484.5 412.5,484.5C 412.5,461.833 412.5,439.167 412.5,416.5C 389.833,416.5 367.167,416.5 344.5,416.5C 343.503,438.66 343.169,460.994 343.5,483.5C 339.5,483.5 335.5,483.5 331.5,483.5C 331.5,456.833 331.5,430.167 331.5,403.5 Z"/></g>
<g><path style="opacity:1" fill="#fcfcfc" d="M 344.5,417.5 C 366.833,417.5 389.167,417.5 411.5,417.5C 411.5,439.5 411.5,461.5 411.5,483.5C 389.167,483.5 366.833,483.5 344.5,483.5C 344.5,461.5 344.5,439.5 344.5,417.5 Z"/></g>
<g><path style="opacity:1" fill="#020202" d="M 439.5,403.5 C 448.167,403.5 456.833,403.5 465.5,403.5C 465.5,407.833 465.5,412.167 465.5,416.5C 469.634,417.485 473.968,417.818 478.5,417.5C 478.5,421.5 478.5,425.5 478.5,429.5C 465.5,429.5 452.5,429.5 439.5,429.5C 439.5,420.833 439.5,412.167 439.5,403.5 Z"/></g>
<g><path style="opacity:1" fill="#636363" d="M 720.5,403.5 C 720.833,403.5 721.167,403.5 721.5,403.5C 721.5,421.5 721.5,439.5 721.5,457.5C 716.833,457.5 712.167,457.5 707.5,457.5C 707.5,444.167 707.5,430.833 707.5,417.5C 702.968,417.818 698.634,417.485 694.5,416.5C 699.167,416.5 703.833,416.5 708.5,416.5C 708.5,429.833 708.5,443.167 708.5,456.5C 712.5,456.5 716.5,456.5 720.5,456.5C 720.5,438.833 720.5,421.167 720.5,403.5 Z"/></g>
<g><path style="opacity:1" fill="#020202" d="M 707.5,390.5 C 707.5,394.833 707.5,399.167 707.5,403.5C 711.833,403.5 716.167,403.5 720.5,403.5C 720.5,421.167 720.5,438.833 720.5,456.5C 716.5,456.5 712.5,456.5 708.5,456.5C 708.5,443.167 708.5,429.833 708.5,416.5C 703.833,416.5 699.167,416.5 694.5,416.5C 694.5,412.167 694.5,407.833 694.5,403.5C 690.167,403.5 685.833,403.5 681.5,403.5C 681.5,399.167 681.5,394.833 681.5,390.5C 690.167,390.5 698.833,390.5 707.5,390.5 Z"/></g>
<g><path style="opacity:1" fill="#484848" d="M 438.5,403.5 C 438.833,403.5 439.167,403.5 439.5,403.5C 439.5,412.167 439.5,420.833 439.5,429.5C 452.5,429.5 465.5,429.5 478.5,429.5C 478.5,429.833 478.5,430.167 478.5,430.5C 465.167,430.5 451.833,430.5 438.5,430.5C 438.5,421.5 438.5,412.5 438.5,403.5 Z"/></g>
<g><path style="opacity:1" fill="#4f4f4f" d="M 572.5,403.5 C 573.493,412.318 573.827,421.318 573.5,430.5C 564.318,430.827 555.318,430.493 546.5,429.5C 555.167,429.5 563.833,429.5 572.5,429.5C 572.5,420.833 572.5,412.167 572.5,403.5 Z"/></g>
<g><path style="opacity:1" fill="#b7b7b7" d="M 613.5,390.5 C 613.833,390.5 614.167,390.5 614.5,390.5C 614.5,403.5 614.5,416.5 614.5,429.5C 627.5,429.5 640.5,429.5 653.5,429.5C 653.5,429.833 653.5,430.167 653.5,430.5C 640.167,430.5 626.833,430.5 613.5,430.5C 613.5,417.167 613.5,403.833 613.5,390.5 Z"/></g>
<g><path style="opacity:1" fill="#a7a7a7" d="M 680.5,416.5 C 681.485,420.634 681.818,424.968 681.5,429.5C 686.032,429.182 690.366,429.515 694.5,430.5C 689.833,430.5 685.167,430.5 680.5,430.5C 680.5,426.167 680.5,421.833 680.5,417.5C 680.5,417.167 680.5,416.833 680.5,416.5 Z"/></g>
<g><path style="opacity:1" fill="#5b5b5b" d="M 532.5,470.5 C 532.5,465.833 532.5,461.167 532.5,456.5C 536.833,456.5 541.167,456.5 545.5,456.5C 545.5,452.5 545.5,448.5 545.5,444.5C 523.5,444.5 501.5,444.5 479.5,444.5C 479.5,448.5 479.5,452.5 479.5,456.5C 493.01,456.171 506.344,456.504 519.5,457.5C 505.833,457.5 492.167,457.5 478.5,457.5C 478.5,452.833 478.5,448.167 478.5,443.5C 501.167,443.5 523.833,443.5 546.5,443.5C 546.5,448.167 546.5,452.833 546.5,457.5C 542.167,457.5 537.833,457.5 533.5,457.5C 533.818,462.032 533.485,466.366 532.5,470.5 Z"/></g>
<g><path style="opacity:1" fill="#020202" d="M 532.5,470.5 C 528.167,470.5 523.833,470.5 519.5,470.5C 519.5,466.167 519.5,461.833 519.5,457.5C 506.344,456.504 493.01,456.171 479.5,456.5C 479.5,452.5 479.5,448.5 479.5,444.5C 501.5,444.5 523.5,444.5 545.5,444.5C 545.5,448.5 545.5,452.5 545.5,456.5C 541.167,456.5 536.833,456.5 532.5,456.5C 532.5,461.167 532.5,465.833 532.5,470.5 Z"/></g>
<g><path style="opacity:1" fill="#545454" d="M 572.5,470.5 C 572.5,461.833 572.5,453.167 572.5,444.5C 568.5,444.5 564.5,444.5 560.5,444.5C 560.5,453.167 560.5,461.833 560.5,470.5C 559.507,461.682 559.173,452.682 559.5,443.5C 564.167,443.5 568.833,443.5 573.5,443.5C 573.827,452.682 573.493,461.682 572.5,470.5 Z"/></g>
<g><path style="opacity:1" fill="#fcfcfc" d="M 654.5,444.5 C 658.5,444.5 662.5,444.5 666.5,444.5C 666.5,453.167 666.5,461.833 666.5,470.5C 662.5,470.5 658.5,470.5 654.5,470.5C 653.515,474.634 653.182,478.968 653.5,483.5C 649.167,483.5 644.833,483.5 640.5,483.5C 640.5,474.833 640.5,466.167 640.5,457.5C 645.167,457.5 649.833,457.5 654.5,457.5C 654.5,453.167 654.5,448.833 654.5,444.5 Z"/></g>
<g><path style="opacity:1" fill="#999999" d="M 694.5,443.5 C 690.366,444.485 686.032,444.818 681.5,444.5C 681.5,448.5 681.5,452.5 681.5,456.5C 686.032,456.182 690.366,456.515 694.5,457.5C 689.833,457.5 685.167,457.5 680.5,457.5C 680.5,452.833 680.5,448.167 680.5,443.5C 685.167,443.5 689.833,443.5 694.5,443.5 Z"/></g>
<g><path style="opacity:1" fill="#c6c6c6" d="M 654.5,444.5 C 654.5,444.167 654.5,443.833 654.5,443.5C 658.833,443.5 663.167,443.5 667.5,443.5C 667.827,452.682 667.493,461.682 666.5,470.5C 666.5,461.833 666.5,453.167 666.5,444.5C 662.5,444.5 658.5,444.5 654.5,444.5 Z"/></g>
<g><path style="opacity:1" fill="#5c5c5c" d="M 438.5,443.5 C 443.167,443.5 447.833,443.5 452.5,443.5C 452.5,448.167 452.5,452.833 452.5,457.5C 447.833,457.5 443.167,457.5 438.5,457.5C 438.5,452.833 438.5,448.167 438.5,443.5 Z"/></g>
<g><path style="opacity:1" fill="#000000" d="M 439.5,444.5 C 443.5,444.5 447.5,444.5 451.5,444.5C 451.5,448.5 451.5,452.5 451.5,456.5C 447.5,456.5 443.5,456.5 439.5,456.5C 439.5,452.5 439.5,448.5 439.5,444.5 Z"/></g>
<g><path style="opacity:1" fill="#5f5f5f" d="M 586.5,390.5 C 586.833,390.5 587.167,390.5 587.5,390.5C 587.5,412.5 587.5,434.5 587.5,456.5C 600.833,456.5 614.167,456.5 627.5,456.5C 627.5,465.5 627.5,474.5 627.5,483.5C 627.167,483.5 626.833,483.5 626.5,483.5C 626.5,474.833 626.5,466.167 626.5,457.5C 613.167,457.5 599.833,457.5 586.5,457.5C 586.5,435.167 586.5,412.833 586.5,390.5 Z"/></g>
<g><path style="opacity:1" fill="#6a6a6a" d="M 654.5,443.5 C 654.5,443.833 654.5,444.167 654.5,444.5C 654.5,448.833 654.5,453.167 654.5,457.5C 649.833,457.5 645.167,457.5 640.5,457.5C 644.634,456.515 648.968,456.182 653.5,456.5C 653.182,451.968 653.515,447.634 654.5,443.5 Z"/></g>
<g><path style="opacity:1" fill="#494949" d="M 331.5,403.5 C 331.5,430.167 331.5,456.833 331.5,483.5C 335.5,483.5 339.5,483.5 343.5,483.5C 343.169,460.994 343.503,438.66 344.5,416.5C 344.5,416.833 344.5,417.167 344.5,417.5C 344.5,439.5 344.5,461.5 344.5,483.5C 344.5,483.833 344.5,484.167 344.5,484.5C 340.167,484.5 335.833,484.5 331.5,484.5C 331.5,488.833 331.5,493.167 331.5,497.5C 330.167,466.167 330.167,434.833 331.5,403.5 Z"/></g>
<g><path style="opacity:1" fill="#010101" d="M 572.5,470.5 C 568.5,470.5 564.5,470.5 560.5,470.5C 560.5,461.833 560.5,453.167 560.5,444.5C 564.5,444.5 568.5,444.5 572.5,444.5C 572.5,453.167 572.5,461.833 572.5,470.5 Z"/></g>
<g><path style="opacity:1" fill="#1f1f1f" d="M 640.5,457.5 C 640.5,466.167 640.5,474.833 640.5,483.5C 640.5,483.833 640.5,484.167 640.5,484.5C 636.167,484.5 631.833,484.5 627.5,484.5C 627.5,488.5 627.5,492.5 627.5,496.5C 636.167,496.5 644.833,496.5 653.5,496.5C 653.5,492.5 653.5,488.5 653.5,484.5C 653.833,484.5 654.167,484.5 654.5,484.5C 654.5,488.5 654.5,492.5 654.5,496.5C 658.5,496.5 662.5,496.5 666.5,496.5C 666.5,496.833 666.5,497.167 666.5,497.5C 648.833,497.5 631.167,497.5 613.5,497.5C 613.182,492.968 613.515,488.634 614.5,484.5C 614.5,488.5 614.5,492.5 614.5,496.5C 618.5,496.5 622.5,496.5 626.5,496.5C 626.5,492.5 626.5,488.5 626.5,484.5C 626.5,484.167 626.5,483.833 626.5,483.5C 626.833,483.5 627.167,483.5 627.5,483.5C 631.5,483.5 635.5,483.5 639.5,483.5C 639.174,474.651 639.507,465.984 640.5,457.5 Z"/></g>
<g><path style="opacity:1" fill="#737373" d="M 344.5,417.5 C 344.5,417.167 344.5,416.833 344.5,416.5C 367.167,416.5 389.833,416.5 412.5,416.5C 412.5,439.167 412.5,461.833 412.5,484.5C 389.833,484.5 367.167,484.5 344.5,484.5C 344.5,484.167 344.5,483.833 344.5,483.5C 366.833,483.5 389.167,483.5 411.5,483.5C 411.5,461.5 411.5,439.5 411.5,417.5C 389.167,417.5 366.833,417.5 344.5,417.5 Z"/></g>
<g><path style="opacity:1" fill="#8c8c8c" d="M 358.5,430.5 C 358.5,443.833 358.5,457.167 358.5,470.5C 371.5,470.5 384.5,470.5 397.5,470.5C 397.5,457.167 397.5,443.833 397.5,430.5C 398.496,443.99 398.829,457.656 398.5,471.5C 384.833,471.5 371.167,471.5 357.5,471.5C 357.171,457.656 357.504,443.99 358.5,430.5 Z"/></g>
<g><path style="opacity:1" fill="#040404" d="M 358.5,430.5 C 371.5,430.5 384.5,430.5 397.5,430.5C 397.5,443.833 397.5,457.167 397.5,470.5C 384.5,470.5 371.5,470.5 358.5,470.5C 358.5,457.167 358.5,443.833 358.5,430.5 Z"/></g>
<g><path style="opacity:1" fill="#080808" d="M 505.5,470.5 C 505.5,474.833 505.5,479.167 505.5,483.5C 501.167,483.5 496.833,483.5 492.5,483.5C 492.5,479.167 492.5,474.833 492.5,470.5C 496.833,470.5 501.167,470.5 505.5,470.5 Z"/></g>
<g><path style="opacity:1" fill="#878787" d="M 505.5,470.5 C 506.485,474.634 506.818,478.968 506.5,483.5C 520.01,483.171 533.344,483.504 546.5,484.5C 533.167,484.5 519.833,484.5 506.5,484.5C 506.5,488.833 506.5,493.167 506.5,497.5C 505.515,493.366 505.182,489.032 505.5,484.5C 500.968,484.818 496.634,484.485 492.5,483.5C 496.833,483.5 501.167,483.5 505.5,483.5C 505.5,479.167 505.5,474.833 505.5,470.5 Z"/></g>
<g><path style="opacity:1" fill="#6b6b6b" d="M 586.5,484.5 C 577.833,484.5 569.167,484.5 560.5,484.5C 560.5,488.833 560.5,493.167 560.5,497.5C 559.514,493.03 559.181,488.363 559.5,483.5C 568.5,483.5 577.5,483.5 586.5,483.5C 586.5,479.167 586.5,474.833 586.5,470.5C 591.167,470.5 595.833,470.5 600.5,470.5C 600.5,475.167 600.5,479.833 600.5,484.5C 595.833,484.5 591.167,484.5 586.5,484.5 Z"/></g>
<g><path style="opacity:1" fill="#000000" d="M 587.5,471.5 C 591.5,471.5 595.5,471.5 599.5,471.5C 599.5,475.5 599.5,479.5 599.5,483.5C 595.5,483.5 591.5,483.5 587.5,483.5C 587.5,479.5 587.5,475.5 587.5,471.5 Z"/></g>
<g><path style="opacity:1" fill="#898989" d="M 654.5,470.5 C 654.5,474.833 654.5,479.167 654.5,483.5C 654.5,483.833 654.5,484.167 654.5,484.5C 654.167,484.5 653.833,484.5 653.5,484.5C 649.167,484.5 644.833,484.5 640.5,484.5C 640.5,484.167 640.5,483.833 640.5,483.5C 644.833,483.5 649.167,483.5 653.5,483.5C 653.182,478.968 653.515,474.634 654.5,470.5 Z"/></g>
<g><path style="opacity:1" fill="#060606" d="M 465.5,483.5 C 469.634,484.485 473.968,484.818 478.5,484.5C 478.5,488.833 478.5,493.167 478.5,497.5C 469.833,497.5 461.167,497.5 452.5,497.5C 452.5,488.5 452.5,479.5 452.5,470.5C 456.833,470.5 461.167,470.5 465.5,470.5C 465.5,474.833 465.5,479.167 465.5,483.5 Z"/></g>
<g><path style="opacity:1" fill="#040404" d="M 546.5,484.5 C 546.5,488.833 546.5,493.167 546.5,497.5C 533.167,497.5 519.833,497.5 506.5,497.5C 506.5,493.167 506.5,488.833 506.5,484.5C 519.833,484.5 533.167,484.5 546.5,484.5 Z"/></g>
<g><path style="opacity:1" fill="#010101" d="M 586.5,484.5 C 586.5,488.833 586.5,493.167 586.5,497.5C 577.833,497.5 569.167,497.5 560.5,497.5C 560.5,493.167 560.5,488.833 560.5,484.5C 569.167,484.5 577.833,484.5 586.5,484.5 Z"/></g>
<g><path style="opacity:1" fill="#000000" d="M 614.5,484.5 C 618.5,484.5 622.5,484.5 626.5,484.5C 626.5,488.5 626.5,492.5 626.5,496.5C 622.5,496.5 618.5,496.5 614.5,496.5C 614.5,492.5 614.5,488.5 614.5,484.5 Z"/></g>
<g><path style="opacity:1" fill="#000000" d="M 640.5,484.5 C 644.833,484.5 649.167,484.5 653.5,484.5C 653.5,488.5 653.5,492.5 653.5,496.5C 644.833,496.5 636.167,496.5 627.5,496.5C 627.5,492.5 627.5,488.5 627.5,484.5C 631.833,484.5 636.167,484.5 640.5,484.5 Z"/></g>
<g><path style="opacity:1" fill="#000000" d="M 654.5,484.5 C 658.5,484.5 662.5,484.5 666.5,484.5C 666.5,488.5 666.5,492.5 666.5,496.5C 666.5,492.5 666.5,488.5 666.5,484.5C 662.5,484.5 658.5,484.5 654.5,484.5 Z"/></g>
<g><path style="opacity:1" fill="#3a3a3a" d="M 654.5,484.5 C 654.5,484.167 654.5,483.833 654.5,483.5C 663.349,483.174 672.016,483.507 680.5,484.5C 676.167,484.5 671.833,484.5 667.5,484.5C 667.818,489.032 667.485,493.366 666.5,497.5C 666.5,497.167 666.5,496.833 666.5,496.5C 666.5,492.5 666.5,488.5 666.5,484.5C 662.5,484.5 658.5,484.5 654.5,484.5 Z"/></g>
<g><path style="opacity:1" fill="#818181" d="M 465.5,483.5 C 470.167,483.5 474.833,483.5 479.5,483.5C 479.819,488.363 479.486,493.03 478.5,497.5C 478.5,493.167 478.5,488.833 478.5,484.5C 473.968,484.818 469.634,484.485 465.5,483.5 Z"/></g>
<g><path style="opacity:1" fill="#686868" d="M 720.5,497.5 C 720.5,493.167 720.5,488.833 720.5,484.5C 716.5,484.5 712.5,484.5 708.5,484.5C 708.5,488.833 708.5,493.167 708.5,497.5C 707.514,493.03 707.181,488.363 707.5,483.5C 712.167,483.5 716.833,483.5 721.5,483.5C 721.819,488.363 721.486,493.03 720.5,497.5 Z"/></g>
<g><path style="opacity:1" fill="#020202" d="M 720.5,497.5 C 716.5,497.5 712.5,497.5 708.5,497.5C 708.5,493.167 708.5,488.833 708.5,484.5C 712.5,484.5 716.5,484.5 720.5,484.5C 720.5,488.833 720.5,493.167 720.5,497.5 Z"/></g>
</svg>
